# Blender 5.0.1
# www.blender.org
mtllib Cigarro.mtl
o Circle
v 2.218792 0.151824 0.000400
v 2.218792 0.140432 0.057676
v 2.218792 0.107988 0.106232
v 2.218792 0.059432 0.138676
v 2.218792 0.002156 0.150068
v 2.218792 -0.055119 0.138676
v 2.218792 -0.103675 0.106232
v 2.218792 -0.136119 0.057676
v 2.218792 -0.147512 0.000400
v 2.218792 -0.136119 -0.056875
v 2.218792 -0.103675 -0.105431
v 2.218792 -0.055119 -0.137875
v 2.218792 0.002156 -0.149268
v 2.218792 0.059432 -0.137875
v 2.218792 0.107988 -0.105431
v 2.218792 0.140432 -0.056875
v 2.218792 0.264316 0.000400
v 2.218792 0.244361 0.100725
v 2.218792 0.187531 0.185776
v 2.218792 0.102481 0.242605
v 2.218792 0.002156 0.262560
v 2.218792 -0.098168 0.242605
v 2.218792 -0.183219 0.185776
v 2.218792 -0.240048 0.100725
v 2.218792 -0.260004 0.000400
v 2.218792 -0.240048 -0.099924
v 2.218792 -0.183219 -0.184975
v 2.218792 -0.098168 -0.241804
v 2.218792 0.002156 -0.261760
v 2.218792 0.102481 -0.241804
v 2.218792 0.187531 -0.184975
v 2.218792 0.244361 -0.099924
v -3.003028 0.151825 0.000401
v -3.003028 0.140432 0.057676
v -3.003028 0.107988 0.106232
v -3.003028 0.059432 0.138676
v -3.003028 0.002157 0.150069
v -3.003028 -0.055119 0.138676
v -3.003028 -0.103675 0.106232
v -3.003028 -0.136119 0.057676
v -3.003028 -0.147512 0.000401
v -3.003028 -0.136119 -0.056875
v -3.003028 -0.103675 -0.105431
v -3.003028 -0.055119 -0.137875
v -3.003028 0.002157 -0.149268
v -3.003028 0.059432 -0.137875
v -3.003028 0.107988 -0.105431
v -3.003028 0.140432 -0.056875
v -1.666281 0.002156 -0.261760
v -1.666281 -0.098168 0.242605
v -1.666281 -0.183219 0.185776
v -1.666281 0.102481 -0.241804
v -1.666281 -0.240048 0.100725
v -1.666281 0.264317 0.000401
v -1.666281 0.187532 -0.184975
v -1.666281 0.244361 0.100725
v -1.666281 -0.260004 0.000401
v -1.666281 0.244361 -0.099924
v -1.666281 0.187532 0.185776
v -1.666281 -0.240048 -0.099924
v -1.666281 0.102481 0.242605
v -1.666281 -0.183219 -0.184975
v -1.666281 0.002156 0.262561
v -1.666281 -0.098168 -0.241804
v -3.003028 0.264317 0.000401
v -3.003028 0.244361 0.100725
v -3.003028 0.187532 0.185776
v -3.003028 0.102481 0.242605
v -3.003028 0.002157 0.262561
v -3.003028 -0.098168 0.242605
v -3.003028 -0.183219 0.185776
v -3.003028 -0.240048 0.100725
v -3.003028 -0.260004 0.000401
v -3.003028 -0.240048 -0.099924
v -3.003028 -0.183219 -0.184975
v -3.003028 -0.098168 -0.241804
v -3.003028 0.002157 -0.261759
v -3.003028 0.102481 -0.241804
v -3.003028 0.187532 -0.184975
v -3.003028 0.244361 -0.099924
v -3.003028 0.238547 0.000401
v -3.003028 0.220552 0.090863
v -3.003028 0.169310 0.167554
v -3.003028 0.092619 0.218796
v -3.003028 0.002157 0.236791
v -3.003028 -0.088306 0.218796
v -3.003028 -0.164996 0.167554
v -3.003028 -0.216239 0.090863
v -3.003028 -0.234233 0.000401
v -3.003028 -0.216239 -0.090062
v -3.003028 -0.164996 -0.166752
v -3.003028 -0.088306 -0.217995
v -3.003028 0.002157 -0.235989
v -3.003028 0.092619 -0.217995
v -3.003028 0.169310 -0.166752
v -3.003028 0.220552 -0.090062
v -3.003028 0.197945 0.000401
v -3.003028 0.183041 0.075325
v -3.003028 0.140600 0.138844
v -3.003028 0.077081 0.181285
v -3.003028 0.002157 0.196189
v -3.003028 -0.072768 0.181285
v -3.003028 -0.136287 0.138844
v -3.003028 -0.178728 0.075325
v -3.003028 -0.193632 0.000401
v -3.003028 -0.178728 -0.074524
v -3.003028 -0.136287 -0.138043
v -3.003028 -0.072768 -0.180484
v -3.003028 0.002157 -0.195388
v -3.003028 0.077081 -0.180484
v -3.003028 0.140600 -0.138043
v -3.003028 0.183041 -0.074524
v -1.564248 -0.098168 0.242605
v -1.564248 0.264317 0.000401
v -1.564248 0.002156 -0.261760
v -1.564248 -0.183219 0.185776
v -1.564248 0.102481 -0.241804
v -1.564248 -0.240048 0.100725
v -1.564248 0.187532 -0.184975
v -1.564248 0.244361 0.100725
v -1.564248 -0.260004 0.000401
v -1.564248 0.244361 -0.099924
v -1.564248 0.187532 0.185776
v -1.564248 -0.240048 -0.099924
v -1.564248 0.102481 0.242605
v -1.564248 -0.183219 -0.184975
v -1.564248 0.002156 0.262561
v -1.564248 -0.098168 -0.241804
v 2.218792 0.238546 0.000400
v 2.218792 0.220552 0.090863
v 2.218792 0.169309 0.167553
v 2.218792 0.092619 0.218796
v 2.218792 0.002156 0.236790
v 2.218792 -0.088306 0.218796
v 2.218792 -0.164997 0.167553
v 2.218792 -0.216240 0.090863
v 2.218792 -0.234234 0.000400
v 2.218792 -0.216240 -0.090062
v 2.218792 -0.164997 -0.166753
v 2.218792 -0.088306 -0.217996
v 2.218792 0.002156 -0.235990
v 2.218792 0.092619 -0.217996
v 2.218792 0.169309 -0.166753
v 2.218792 0.220552 -0.090062
v 2.218792 0.197944 0.000400
v 2.218792 0.183041 0.075325
v 2.218792 0.140599 0.138843
v 2.218792 0.077081 0.181285
v 2.218792 0.002156 0.196188
v 2.218792 -0.072769 0.181285
v 2.218792 -0.136287 0.138843
v 2.218792 -0.178728 0.075325
v 2.218792 -0.193632 0.000400
v 2.218792 -0.178728 -0.074525
v 2.218792 -0.136287 -0.138043
v 2.218792 -0.072769 -0.180484
v 2.218792 0.002156 -0.195388
v 2.218792 0.077081 -0.180484
v 2.218792 0.140599 -0.138043
v 2.218792 0.183041 -0.074525
v 1.741838 0.264316 0.000400
v 1.741838 0.002156 -0.261760
v 1.741838 0.102481 -0.241804
v 1.741838 0.187531 -0.184975
v 1.741838 0.244361 0.100725
v 1.741838 -0.260004 0.000400
v 1.741838 0.244361 -0.099924
v 1.741838 -0.240048 -0.099924
v 1.741838 -0.183219 -0.184975
v 1.741838 -0.098168 -0.241804
v 1.741838 -0.098168 0.242605
v 1.741838 -0.183219 0.185776
v 1.741838 -0.240048 0.100725
v 1.741838 0.187531 0.185776
v 1.741838 0.102481 0.242605
v 1.741838 0.002156 0.262560
v 1.932620 0.264316 0.000400
v 2.123402 0.264316 0.000400
v 1.932620 -0.098168 0.242605
v 2.123402 -0.098168 0.242605
v 2.123402 0.002156 -0.261760
v 1.932620 0.002156 -0.261760
v 2.123402 0.102481 -0.241804
v 1.932620 0.102481 -0.241804
v 2.123402 0.187531 -0.184975
v 1.932620 0.187531 -0.184975
v 2.123402 0.244361 0.100725
v 1.932620 0.244361 0.100725
v 2.123402 -0.260004 0.000400
v 1.932620 -0.260004 0.000400
v 2.123402 0.244361 -0.099924
v 1.932620 0.244361 -0.099924
v 2.123402 -0.240048 -0.099924
v 1.932620 -0.240048 -0.099924
v 2.123402 -0.183219 -0.184975
v 1.932620 -0.183219 -0.184975
v 2.123402 -0.098168 -0.241804
v 1.932620 -0.098168 -0.241804
v 2.123402 -0.183219 0.185776
v 1.932620 -0.183219 0.185776
v 2.123402 -0.240048 0.100725
v 1.932620 -0.240048 0.100725
v 2.123402 0.187531 0.185776
v 1.932620 0.187531 0.185776
v 2.123402 0.102481 0.242605
v 1.932620 0.102481 0.242605
v 2.123402 0.002156 0.262560
v 1.932620 0.002156 0.262560
v 2.218792 0.002156 0.000400
v 2.218792 0.002156 0.057676
v 2.218792 0.002156 -0.056875
v 2.218792 -0.055119 -0.056875
v 2.218792 -0.055119 0.000400
v 2.218792 -0.055119 0.057676
v 2.218792 0.059432 -0.056875
v 2.218792 0.059432 0.000400
v 2.218792 0.059432 0.057676
v -3.003028 0.002157 0.000401
v -3.003028 0.002157 -0.056875
v -3.003028 0.002157 0.057676
v -3.003028 -0.055119 -0.056875
v -3.003028 -0.055119 0.000401
v -3.003028 -0.055119 0.057676
v -3.003028 0.059432 -0.056875
v -3.003028 0.059432 0.000401
v -3.003028 0.059432 0.057676
v 0.915316 0.002156 -0.261760
v 0.088795 0.002156 -0.261760
v -0.737726 0.002156 -0.261760
v 0.915316 0.102481 -0.241804
v 0.088795 0.102481 -0.241804
v -0.737726 0.102481 -0.241804
v 0.915316 0.187532 -0.184975
v 0.088795 0.187532 -0.184975
v -0.737726 0.187532 -0.184975
v 0.915316 0.244361 0.100725
v 0.088795 0.244361 0.100725
v -0.737726 0.244361 0.100725
v 0.915316 -0.260004 0.000400
v 0.088795 -0.260004 0.000400
v -0.737726 -0.260004 0.000400
v 0.915316 0.244361 -0.099924
v 0.088795 0.244361 -0.099924
v -0.737726 0.244361 -0.099924
v 0.915316 -0.240048 -0.099924
v 0.088795 -0.240048 -0.099924
v -0.737726 -0.240048 -0.099924
v 0.915316 -0.183219 -0.184975
v 0.088795 -0.183219 -0.184975
v -0.737726 -0.183219 -0.184975
v 0.915316 -0.098168 -0.241804
v 0.088795 -0.098168 -0.241804
v -0.737726 -0.098168 -0.241804
v -0.737726 0.264316 0.000400
v 0.088795 0.264316 0.000400
v 0.915316 0.264316 0.000400
v 0.915316 -0.183219 0.185776
v 0.088795 -0.183219 0.185776
v -0.737726 -0.183219 0.185776
v 0.915316 -0.240048 0.100725
v 0.088795 -0.240048 0.100725
v -0.737726 -0.240048 0.100725
v 0.915316 0.187532 0.185776
v 0.088795 0.187532 0.185776
v -0.737726 0.187532 0.185776
v 0.915316 0.102481 0.242605
v 0.088795 0.102481 0.242605
v -0.737726 0.102481 0.242605
v 0.915316 0.002156 0.262560
v 0.088795 0.002156 0.262560
v -0.737726 0.002156 0.262561
v -0.737726 -0.098168 0.242605
v 0.088795 -0.098168 0.242605
v 0.915316 -0.098168 0.242605
v -2.334654 0.002156 -0.261759
v -2.334654 -0.183219 0.185776
v -2.334654 0.102481 -0.241804
v -2.334654 -0.240048 0.100725
v -2.334654 0.187532 -0.184975
v -2.334654 0.244361 0.100725
v -2.334654 -0.260004 0.000401
v -2.334654 0.244361 -0.099924
v -2.334654 0.187532 0.185776
v -2.334654 -0.240048 -0.099924
v -2.334654 0.102481 0.242605
v -2.334654 -0.183219 -0.184975
v -2.334654 0.002156 0.262561
v -2.334654 -0.098168 -0.241804
v -2.334654 -0.098168 0.242605
v -2.334654 0.264317 0.000401
vn -0.0000 0.1951 -0.9808
vn -0.0000 -0.8315 0.5556
vn -0.0000 0.5556 -0.8315
vn -0.0000 0.9808 0.1951
vn -0.0000 -0.9808 0.1951
vn -0.0000 0.8315 -0.5556
vn -0.0000 0.8315 0.5556
vn -0.0000 -0.9808 -0.1951
vn -0.0000 0.9808 -0.1951
vn -0.0000 0.5556 0.8315
vn -0.0000 -0.8315 -0.5556
vn -0.0000 0.1951 0.9808
vn -0.0000 -0.5556 -0.8315
vn -0.0000 -0.1951 0.9808
vn -0.0000 -0.1951 -0.9808
vn -1.0000 -0.0000 -0.0000
vn 1.0000 -0.0000 -0.0000
vn -0.0000 -0.5556 0.8315
vt 0.385136 0.258696
vt 0.385136 0.237138
vt 0.425344 0.237138
vt 0.425344 0.258696
vt 0.086232 0.000000
vt 0.107790 0.000000
vt 0.107790 0.140863
vt 0.086232 0.140863
vt 0.301812 0.000000
vt 0.323370 0.000000
vt 0.323370 0.140863
vt 0.301812 0.140863
vt 0.129348 0.000000
vt 0.129348 0.140863
vt 0.172464 0.000000
vt 0.194022 0.000000
vt 0.194022 0.140863
vt 0.172464 0.140863
vt 0.344928 0.000000
vt 0.344928 0.140863
vt 0.150906 0.000000
vt 0.150906 0.140863
vt 0.215580 0.000000
vt 0.215580 0.140863
vt -0.000000 0.000000
vt 0.021558 0.000000
vt 0.021558 0.140863
vt 0.000000 0.140863
vt 0.237138 0.000000
vt 0.237138 0.140863
vt 0.043116 0.000000
vt 0.043116 0.140863
vt 0.258696 0.000000
vt 0.258696 0.140863
vt 0.064674 0.000000
vt 0.064674 0.140863
vt 0.280254 0.000000
vt 0.280254 0.140863
vt 0.086232 0.281725
vt 0.064674 0.281725
vt 0.447980 0.389398
vt 0.453307 0.388339
vt 0.453307 0.409897
vt 0.447980 0.408837
vt 0.086232 0.303229
vt 0.107790 0.303229
vt 0.107790 0.477422
vt 0.086232 0.477422
vt 0.258696 0.303229
vt 0.258696 0.281725
vt 0.280254 0.281725
vt 0.280254 0.303229
vt 0.043116 0.303229
vt 0.043116 0.281725
vt 0.064674 0.303229
vt 0.237138 0.303229
vt 0.237138 0.281725
vt 0.021558 0.303229
vt 0.021558 0.281725
vt 0.215580 0.303229
vt 0.215580 0.281725
vt 0.150906 0.303229
vt 0.150906 0.281725
vt 0.172464 0.281725
vt 0.172464 0.303229
vt 0.000000 0.303229
vt 0.000000 0.281725
vt 0.194022 0.303229
vt 0.194022 0.281725
vt 0.129348 0.303229
vt 0.129348 0.281725
vt 0.323370 0.303229
vt 0.323370 0.281725
vt 0.344928 0.281725
vt 0.344928 0.303229
vt 0.107790 0.281725
vt 0.301812 0.303229
vt 0.301812 0.281725
vt 0.440542 0.371439
vt 0.445057 0.368422
vt 0.426796 0.357694
vt 0.429814 0.353178
vt 0.408837 0.350255
vt 0.409896 0.344928
vt 0.389398 0.350255
vt 0.388339 0.344928
vt 0.371439 0.357694
vt 0.368422 0.353178
vt 0.357694 0.371439
vt 0.353178 0.368422
vt 0.350255 0.389398
vt 0.344928 0.388339
vt 0.350255 0.408837
vt 0.344928 0.409897
vt 0.357694 0.426796
vt 0.353178 0.429814
vt 0.371439 0.440542
vt 0.368422 0.445058
vt 0.389398 0.447981
vt 0.388339 0.453307
vt 0.408837 0.447981
vt 0.409897 0.453307
vt 0.426796 0.440542
vt 0.429814 0.445057
vt 0.440542 0.426796
vt 0.445057 0.429814
vt 0.439588 0.391067
vt 0.439588 0.407168
vt 0.433427 0.376193
vt 0.422042 0.364809
vt 0.407167 0.358648
vt 0.391067 0.358647
vt 0.376193 0.364809
vt 0.364808 0.376193
vt 0.358647 0.391068
vt 0.358647 0.407168
vt 0.364809 0.422042
vt 0.376193 0.433427
vt 0.391068 0.439588
vt 0.407168 0.439588
vt 0.422042 0.433427
vt 0.433427 0.422042
vt 0.430055 0.392964
vt 0.430055 0.405271
vt 0.425345 0.381593
vt 0.416642 0.372890
vt 0.405271 0.368181
vt 0.392964 0.368181
vt 0.381593 0.372890
vt 0.372890 0.381593
vt 0.368180 0.392964
vt 0.368180 0.405271
vt 0.372890 0.416642
vt 0.381593 0.425345
vt 0.392964 0.430055
vt 0.405271 0.430055
vt 0.416642 0.425345
vt 0.425345 0.416642
vt 0.389633 0.384924
vt 0.064674 0.477422
vt 0.086232 0.651614
vt 0.064674 0.651614
vt 0.129348 0.477422
vt 0.150906 0.477422
vt 0.194022 0.477422
vt 0.172464 0.477422
vt 0.021558 0.477422
vt 0.000000 0.477422
vt 0.043116 0.477422
vt 0.509357 0.103053
vt 0.489918 0.103053
vt 0.491588 0.094660
vt 0.507688 0.094660
vt 0.488859 0.108379
vt 0.468942 0.100129
vt 0.471959 0.095614
vt 0.453698 0.084886
vt 0.458214 0.081868
vt 0.445448 0.064969
vt 0.450775 0.063909
vt 0.445448 0.043411
vt 0.450775 0.044470
vt 0.453698 0.023494
vt 0.458214 0.026511
vt 0.468942 0.008250
vt 0.471959 0.012766
vt 0.488859 0.000000
vt 0.489918 0.005327
vt 0.510417 -0.000000
vt 0.509357 0.005327
vt 0.530334 0.008250
vt 0.527316 0.012766
vt 0.545578 0.023494
vt 0.541062 0.026511
vt 0.553827 0.043411
vt 0.548501 0.044470
vt 0.553827 0.064969
vt 0.548501 0.063909
vt 0.545578 0.084886
vt 0.541062 0.081868
vt 0.530334 0.100129
vt 0.527316 0.095614
vt 0.510417 0.108379
vt 0.493484 0.085127
vt 0.505792 0.085127
vt 0.476713 0.088499
vt 0.465329 0.077114
vt 0.459167 0.062240
vt 0.459167 0.046140
vt 0.465329 0.031265
vt 0.476713 0.019881
vt 0.491588 0.013719
vt 0.507688 0.013719
vt 0.522562 0.019881
vt 0.533947 0.031265
vt 0.540108 0.046140
vt 0.540108 0.062240
vt 0.533947 0.077114
vt 0.522562 0.088499
vt 0.064674 0.825807
vt 0.086232 0.825807
vt 0.086232 1.000000
vt 0.064674 1.000000
vt 0.482113 0.080417
vt 0.473411 0.071714
vt 0.468701 0.060343
vt 0.468701 0.048036
vt 0.473411 0.036665
vt 0.482113 0.027962
vt 0.493484 0.023253
vt 0.505791 0.023253
vt 0.517162 0.027962
vt 0.525865 0.036665
vt 0.530575 0.048036
vt 0.530575 0.060343
vt 0.525865 0.071714
vt 0.517162 0.080417
vt 0.301812 0.477422
vt 0.280254 0.477422
vt 0.323370 0.477422
vt 0.344928 0.477422
vt 0.215580 0.477422
vt 0.237138 0.477422
vt 0.258696 0.477422
vt 0.445448 0.237138
vt 0.445448 0.258696
vt 0.385136 0.064674
vt 0.385136 0.043116
vt 0.425344 0.043116
vt 0.425344 0.064674
vt 0.385136 0.215580
vt 0.425344 0.215580
vt 0.385136 0.021558
vt 0.425344 0.021558
vt 0.385136 0.086232
vt 0.425344 0.086232
vt 0.385136 0.107790
vt 0.425344 0.107790
vt 0.425344 0.301812
vt 0.385136 0.301812
vt 0.385136 0.280254
vt 0.425344 0.280254
vt 0.385136 0.129348
vt 0.425344 0.129348
vt 0.425344 0.150906
vt 0.385136 0.150906
vt 0.385136 0.194022
vt 0.425344 0.194022
vt 0.385136 0.323370
vt 0.425344 0.323370
vt 0.385136 0.172464
vt 0.425344 0.172464
vt 0.385136 0.344928
vt 0.425344 0.344928
vt 0.385136 0.000000
vt 0.425344 0.000000
vt 0.344928 0.237138
vt 0.344928 0.258696
vt 0.344928 0.280254
vt 0.445448 0.215580
vt 0.344928 0.215580
vt 0.445448 0.194022
vt 0.344928 0.194022
vt 0.445448 0.150906
vt 0.445448 0.172464
vt 0.344928 0.150906
vt 0.344928 0.172464
vt 0.445448 0.323370
vt 0.445448 0.344928
vt 0.344928 0.323370
vt 0.344928 0.344928
vt 0.445448 0.301812
vt 0.344928 0.301812
vt 0.445448 0.280254
vt 0.445448 0.043116
vt 0.445448 0.064674
vt 0.344928 0.043116
vt 0.344928 0.064674
vt 0.445448 0.021558
vt 0.344928 0.021558
vt 0.445448 0.000000
vt 0.344928 0.000000
vt 0.445448 0.129348
vt 0.344928 0.129348
vt 0.445448 0.107790
vt 0.344928 0.107790
vt 0.445448 0.086232
vt 0.344928 0.086232
vt 0.485444 0.044706
vt 0.499638 0.054190
vt 0.487799 0.056545
vt 0.497283 0.042351
vt 0.490154 0.068384
vt 0.513832 0.063674
vt 0.511477 0.051835
vt 0.509122 0.039996
vt 0.501993 0.066029
vt 0.384924 0.408602
vt 0.408602 0.413312
vt 0.396763 0.410957
vt 0.410957 0.401473
vt 0.399118 0.399118
vt 0.387278 0.396763
vt 0.413312 0.389634
vt 0.401472 0.387279
vt 0.107790 0.825807
vt 0.107790 1.000000
vt 0.258696 0.825807
vt 0.258696 0.651614
vt 0.280254 0.651614
vt 0.280254 0.825807
vt 0.237138 0.825807
vt 0.237138 0.651614
vt 0.258696 1.000000
vt 0.280254 1.000000
vt 0.043116 0.651614
vt 0.043116 0.825807
vt 0.215580 0.825807
vt 0.215580 0.651614
vt 0.237138 1.000000
vt 0.194022 0.825807
vt 0.194022 0.651614
vt 0.215580 1.000000
vt 0.323370 0.825807
vt 0.323370 0.651614
vt 0.344928 0.651614
vt 0.344928 0.825807
vt 0.194022 1.000000
vt 0.301812 0.825807
vt 0.301812 0.651614
vt 0.323370 1.000000
vt 0.344928 1.000000
vt 0.107790 0.651614
vt 0.129348 0.651614
vt 0.129348 0.825807
vt 0.172464 1.000000
vt 0.172464 0.825807
vt 0.301812 1.000000
vt 0.021558 0.825807
vt 0.021558 0.651614
vt 0.043116 1.000000
vt 0.150906 0.825807
vt 0.150906 0.651614
vt 0.172464 0.651614
vt 0.021558 1.000000
vt 0.000000 0.825807
vt 0.000000 0.651614
vt 0.150906 1.000000
vt -0.000000 1.000000
vt 0.129348 1.000000
s 0
usemtl Mapa_Calor
f 182/1/1 184/2/1 183/3/1 181/4/1
f 129/150/17 130/151/17 146/152/17 145/153/17
f 18/154/17 19/155/17 131/156/17 130/151/17
f 19/155/17 20/157/17 132/158/17 131/156/17
f 20/157/17 21/159/17 133/160/17 132/158/17
f 21/159/17 22/161/17 134/162/17 133/160/17
f 22/161/17 23/163/17 135/164/17 134/162/17
f 23/163/17 24/165/17 136/166/17 135/164/17
f 24/165/17 25/167/17 137/168/17 136/166/17
f 25/167/17 26/169/17 138/170/17 137/168/17
f 26/169/17 27/171/17 139/172/17 138/170/17
f 27/171/17 28/173/17 140/174/17 139/172/17
f 28/173/17 29/175/17 141/176/17 140/174/17
f 29/175/17 30/177/17 142/178/17 141/176/17
f 30/177/17 31/179/17 143/180/17 142/178/17
f 31/179/17 32/181/17 144/182/17 143/180/17
f 32/181/17 17/183/17 129/150/17 144/182/17
f 145/153/17 146/152/17 2/184/17 1/185/17
f 130/151/17 131/156/17 147/186/17 146/152/17
f 132/158/17 133/160/17 149/188/17 148/187/17
f 133/160/17 134/162/17 150/189/17 149/188/17
f 134/162/17 135/164/17 151/190/17 150/189/17
f 135/164/17 136/166/17 152/191/17 151/190/17
f 136/166/17 137/168/17 153/192/17 152/191/17
f 137/168/17 138/170/17 154/193/17 153/192/17
f 138/170/17 139/172/17 155/194/17 154/193/17
f 139/172/17 140/174/17 156/195/17 155/194/17
f 140/174/17 141/176/17 157/196/17 156/195/17
f 141/176/17 142/178/17 158/197/17 157/196/17
f 142/178/17 143/180/17 159/198/17 158/197/17
f 143/180/17 144/182/17 160/199/17 159/198/17
f 144/182/17 129/150/17 145/153/17 160/199/17
f 146/152/17 147/186/17 3/204/17 2/184/17
f 147/186/17 148/187/17 4/205/17 3/204/17
f 148/187/17 149/188/17 5/206/17 4/205/17
f 149/188/17 150/189/17 6/207/17 5/206/17
f 150/189/17 151/190/17 7/208/17 6/207/17
f 151/190/17 152/191/17 8/209/17 7/208/17
f 152/191/17 153/192/17 9/210/17 8/209/17
f 153/192/17 154/193/17 10/211/17 9/210/17
f 154/193/17 155/194/17 11/212/17 10/211/17
f 156/195/17 157/196/17 13/214/17 12/213/17
f 157/196/17 158/197/17 14/215/17 13/214/17
f 158/197/17 159/198/17 15/216/17 14/215/17
f 159/198/17 160/199/17 16/217/17 15/216/17
f 160/199/17 145/153/17 1/185/17 16/217/17
f 181/4/1 183/3/1 30/225/1 29/226/1
f 179/227/18 200/228/18 199/229/18 180/230/18
f 183/3/3 184/2/3 186/231/3 185/232/3
f 200/228/2 202/233/2 201/234/2 199/229/2
f 208/235/14 179/227/14 180/230/14 207/236/14
f 206/237/12 208/235/12 207/236/12 205/238/12
f 195/239/13 196/240/13 198/241/13 197/242/13
f 204/243/7 203/244/7 187/245/7 188/246/7
f 186/231/6 192/247/6 191/248/6 185/232/6
f 204/243/10 206/237/10 205/238/10 203/244/10
f 197/242/15 198/241/15 182/1/15 181/4/15
f 194/249/11 196/240/11 195/239/11 193/250/11
f 192/247/9 177/251/9 178/252/9 191/248/9
f 190/253/8 194/249/8 193/250/8 189/254/8
f 202/233/5 190/255/5 189/256/5 201/234/5
f 17/183/17 18/154/17 130/151/17 129/150/17
f 163/257/1 184/2/1 182/1/1 162/258/1
f 198/241/15 170/259/15 162/258/15 182/1/15
f 30/225/3 183/3/3 185/232/3 31/260/3
f 184/2/3 163/257/3 164/261/3 186/231/3
f 185/232/6 191/248/6 32/262/6 31/260/6
f 167/263/6 192/247/6 186/231/6 164/261/6
f 178/252/4 187/245/4 18/264/4 17/265/4
f 165/266/4 188/246/4 177/251/4 161/267/4
f 189/254/8 193/250/8 26/268/8 25/269/8
f 168/270/8 194/249/8 190/253/8 166/271/8
f 191/248/9 178/252/9 17/265/9 32/262/9
f 161/267/9 177/251/9 192/247/9 167/263/9
f 193/250/11 195/239/11 27/272/11 26/268/11
f 169/273/11 196/240/11 194/249/11 168/270/11
f 27/272/13 195/239/13 197/242/13 28/274/13
f 196/240/13 169/273/13 170/259/13 198/241/13
f 180/230/18 199/229/18 23/275/18 22/276/18
f 172/277/18 200/228/18 179/227/18 171/278/18
f 199/229/2 201/234/2 24/279/2 23/275/2
f 173/280/2 202/233/2 200/228/2 172/277/2
f 201/234/5 189/256/5 25/281/5 24/279/5
f 166/282/5 190/255/5 202/233/5 173/280/5
f 203/244/7 19/283/7 18/264/7 187/245/7
f 174/284/7 204/243/7 188/246/7 165/266/7
f 203/244/10 205/238/10 20/285/10 19/283/10
f 175/286/10 206/237/10 204/243/10 174/284/10
f 205/238/12 207/236/12 21/287/12 20/285/12
f 176/288/12 208/235/12 206/237/12 175/286/12
f 207/236/14 180/230/14 22/276/14 21/287/14
f 171/278/14 179/227/14 208/235/14 176/288/14
f 214/289/17 6/207/17 7/208/17 8/209/17
f 209/290/17 210/291/17 214/289/17 213/292/17
f 3/204/17 4/205/17 217/293/17 2/184/17
f 215/294/17 14/215/17 15/216/17 16/217/17
f 215/294/17 211/295/17 13/214/17 14/215/17
f 212/296/17 213/292/17 9/210/17 10/211/17
f 214/289/17 210/291/17 5/206/17 6/207/17
f 217/293/17 210/291/17 209/290/17 216/297/17
f 210/291/17 217/293/17 4/205/17 5/206/17
f 213/292/17 214/289/17 8/209/17 9/210/17
f 213/292/17 212/296/17 211/295/17 209/290/17
f 211/295/17 212/296/17 12/213/17 13/214/17
f 209/290/17 211/295/17 215/294/17 216/297/17
f 1/185/17 2/184/17 217/293/17 216/297/17
f 216/297/17 215/294/17 16/217/17 1/185/17
f 11/212/17 12/213/17 212/296/17 10/211/17
f 28/274/15 197/242/15 181/4/15 29/226/15
f 177/251/4 188/246/4 187/245/4 178/252/4
usemtl Mapa_Textura
f 77/5/1 78/6/1 277/7/1 275/8/1
f 71/9/2 72/10/2 278/11/2 276/12/2
f 78/6/3 79/13/3 279/14/3 277/7/3
f 65/15/4 66/16/4 280/17/4 290/18/4
f 72/10/5 73/19/5 281/20/5 278/11/5
f 79/13/6 80/21/6 282/22/6 279/14/6
f 66/16/7 67/23/7 283/24/7 280/17/7
f 73/25/8 74/26/8 284/27/8 281/28/8
f 80/21/9 65/15/9 290/18/9 282/22/9
f 67/23/10 68/29/10 285/30/10 283/24/10
f 74/26/11 75/31/11 286/32/11 284/27/11
f 68/29/12 69/33/12 287/34/12 285/30/12
f 75/31/13 76/35/13 288/36/13 286/32/13
f 69/33/14 70/37/14 289/38/14 287/34/14
f 288/36/15 275/8/15 49/39/15 64/40/15
f 82/41/16 66/42/16 65/43/16 81/44/16
f 115/45/1 117/46/1 232/47/1 229/48/1
f 127/49/14 63/50/14 50/51/14 113/52/14
f 126/53/13 62/54/13 64/40/13 128/55/13
f 125/56/12 61/57/12 63/50/12 127/49/12
f 124/58/11 60/59/11 62/54/11 126/53/11
f 123/60/10 59/61/10 61/57/10 125/56/10
f 122/62/9 58/63/9 54/64/9 114/65/9
f 121/66/8 57/67/8 60/59/8 124/58/8
f 120/68/7 56/69/7 59/61/7 123/60/7
f 119/70/6 55/71/6 58/63/6 122/62/6
f 118/72/5 53/73/5 57/74/5 121/75/5
f 114/65/4 54/64/4 56/69/4 120/68/4
f 117/46/3 52/76/3 55/71/3 119/70/3
f 116/77/2 51/78/2 53/73/2 118/72/2
f 115/45/1 49/39/1 52/76/1 117/46/1
f 83/79/16 67/80/16 66/42/16 82/41/16
f 84/81/16 68/82/16 67/80/16 83/79/16
f 85/83/16 69/84/16 68/82/16 84/81/16
f 86/85/16 70/86/16 69/84/16 85/83/16
f 87/87/16 71/88/16 70/86/16 86/85/16
f 88/89/16 72/90/16 71/88/16 87/87/16
f 89/91/16 73/92/16 72/90/16 88/89/16
f 90/93/16 74/94/16 73/92/16 89/91/16
f 91/95/16 75/96/16 74/94/16 90/93/16
f 92/97/16 76/98/16 75/96/16 91/95/16
f 93/99/16 77/100/16 76/98/16 92/97/16
f 94/101/16 78/102/16 77/100/16 93/99/16
f 95/103/16 79/104/16 78/102/16 94/101/16
f 96/105/16 80/106/16 79/104/16 95/103/16
f 81/44/16 65/43/16 80/106/16 96/105/16
f 98/107/16 82/41/16 81/44/16 97/108/16
f 99/109/16 83/79/16 82/41/16 98/107/16
f 100/110/16 84/81/16 83/79/16 99/109/16
f 101/111/16 85/83/16 84/81/16 100/110/16
f 102/112/16 86/85/16 85/83/16 101/111/16
f 103/113/16 87/87/16 86/85/16 102/112/16
f 104/114/16 88/89/16 87/87/16 103/113/16
f 105/115/16 89/91/16 88/89/16 104/114/16
f 106/116/16 90/93/16 89/91/16 105/115/16
f 107/117/16 91/95/16 90/93/16 106/116/16
f 108/118/16 92/97/16 91/95/16 107/117/16
f 109/119/16 93/99/16 92/97/16 108/118/16
f 110/120/16 94/101/16 93/99/16 109/119/16
f 111/121/16 95/103/16 94/101/16 110/120/16
f 112/122/16 96/105/16 95/103/16 111/121/16
f 97/108/16 81/44/16 96/105/16 112/122/16
f 34/123/16 98/107/16 97/108/16 33/124/16
f 35/125/16 99/109/16 98/107/16 34/123/16
f 36/126/16 100/110/16 99/109/16 35/125/16
f 37/127/16 101/111/16 100/110/16 36/126/16
f 38/128/16 102/112/16 101/111/16 37/127/16
f 39/129/16 103/113/16 102/112/16 38/128/16
f 40/130/16 104/114/16 103/113/16 39/129/16
f 41/131/16 105/115/16 104/114/16 40/130/16
f 42/132/16 106/116/16 105/115/16 41/131/16
f 43/133/16 107/117/16 106/116/16 42/132/16
f 44/134/16 108/118/16 107/117/16 43/133/16
f 45/135/16 109/119/16 108/118/16 44/134/16
f 46/136/16 110/120/16 109/119/16 45/135/16
f 47/137/16 111/121/16 110/120/16 46/136/16
f 48/138/16 112/122/16 111/121/16 47/137/16
f 33/124/16 97/108/16 112/122/16 48/138/16
f 64/40/15 49/39/15 115/45/15 128/55/15
f 38/128/16 223/139/16 40/130/16 39/129/16
f 253/140/15 229/48/15 228/141/15 252/142/15
f 232/47/3 117/46/3 119/70/3 235/143/3
f 119/70/6 122/62/6 244/144/6 235/143/6
f 114/65/4 120/68/4 238/145/4 254/146/4
f 121/66/8 124/58/8 247/147/8 241/148/8
f 122/62/9 114/65/9 254/146/9 244/144/9
f 124/58/11 126/53/11 250/149/11 247/147/11
f 250/149/13 126/53/13 128/55/13 253/140/13
f 131/156/17 132/158/17 148/187/17 147/186/17
f 251/200/15 227/201/15 162/202/15 170/203/15
f 155/194/17 156/195/17 12/213/17 11/212/17
f 113/52/18 116/77/18 259/218/18 272/219/18
f 116/77/2 118/72/2 262/220/2 259/218/2
f 118/72/5 121/75/5 241/221/5 262/220/5
f 120/68/7 123/60/7 265/222/7 238/145/7
f 123/60/10 125/56/10 268/223/10 265/222/10
f 125/56/12 127/49/12 271/224/12 268/223/12
f 127/49/14 113/52/14 272/219/14 271/224/14
f 221/298/16 44/134/16 43/133/16 42/132/16
f 224/299/16 46/136/16 45/135/16 219/300/16
f 225/301/16 224/299/16 219/300/16 218/302/16
f 222/303/16 221/298/16 42/132/16 41/131/16
f 223/139/16 222/303/16 41/131/16 40/130/16
f 226/304/16 225/301/16 218/302/16 220/305/16
f 218/302/16 219/300/16 221/298/16 222/303/16
f 219/300/16 45/135/16 44/134/16 221/298/16
f 220/305/16 218/302/16 222/303/16 223/139/16
f 226/304/16 220/305/16 37/127/16 36/126/16
f 220/305/16 223/139/16 38/128/16 37/127/16
f 46/136/16 224/299/16 48/138/16 47/137/16
f 225/301/16 226/304/16 34/123/16 33/124/16
f 224/299/16 225/301/16 33/124/16 48/138/16
f 34/123/16 226/304/16 36/126/16 35/125/16
f 162/202/1 227/201/1 230/306/1 163/307/1
f 269/308/14 270/309/14 273/310/14 274/311/14
f 270/309/14 271/224/14 272/219/14 273/310/14
f 50/51/18 289/38/18 276/12/18 51/78/18
f 266/312/12 267/313/12 270/309/12 269/308/12
f 267/313/12 268/223/12 271/224/12 270/309/12
f 176/314/14 269/308/14 274/311/14 171/315/14
f 249/316/13 252/142/13 251/200/13 248/317/13
f 250/149/13 253/140/13 252/142/13 249/316/13
f 253/140/15 128/55/15 115/45/15 229/48/15
f 263/318/10 264/319/10 267/313/10 266/312/10
f 264/319/10 265/222/10 268/223/10 267/313/10
f 175/320/12 266/312/12 269/308/12 176/314/12
f 236/321/7 237/322/7 264/319/7 263/318/7
f 237/322/7 238/145/7 265/222/7 264/319/7
f 174/323/10 263/318/10 266/312/10 175/320/10
f 260/324/5 261/325/5 240/326/5 239/327/5
f 261/325/5 262/220/5 241/221/5 240/326/5
f 165/328/7 236/321/7 263/318/7 174/323/7
f 257/329/2 258/330/2 261/325/2 260/324/2
f 258/330/2 259/218/2 262/220/2 261/325/2
f 173/331/5 260/324/5 239/327/5 166/332/5
f 231/333/3 234/334/3 233/335/3 230/306/3
f 232/47/3 235/143/3 234/334/3 231/333/3
f 161/336/4 256/337/4 236/321/4 165/328/4
f 274/311/18 273/310/18 258/330/18 257/329/18
f 273/310/18 272/219/18 259/218/18 258/330/18
f 172/338/2 257/329/2 260/324/2 173/331/2
f 171/315/18 274/311/18 257/329/18 172/338/18
f 252/142/15 228/141/15 227/201/15 251/200/15
f 245/339/11 246/340/11 249/316/11 248/317/11
f 246/340/11 247/147/11 250/149/11 249/316/11
f 248/317/13 251/200/13 170/203/13 169/341/13
f 242/342/9 243/343/9 255/344/9 256/337/9
f 243/343/9 244/144/9 254/146/9 255/344/9
f 168/345/11 245/339/11 248/317/11 169/341/11
f 239/346/8 240/347/8 246/340/8 245/339/8
f 240/347/8 241/148/8 247/147/8 246/340/8
f 167/348/9 242/342/9 256/337/9 161/336/9
f 233/335/6 234/334/6 243/343/6 242/342/6
f 234/334/6 235/143/6 244/144/6 243/343/6
f 166/349/8 239/346/8 245/339/8 168/345/8
f 256/337/4 255/344/4 237/322/4 236/321/4
f 255/344/4 254/146/4 238/145/4 237/322/4
f 164/350/6 233/335/6 242/342/6 167/348/6
f 227/201/1 228/141/1 231/333/1 230/306/1
f 228/141/1 229/48/1 232/47/1 231/333/1
f 230/306/3 233/335/3 164/350/3 163/307/3
f 288/36/15 76/35/15 77/5/15 275/8/15
f 113/52/18 50/51/18 51/78/18 116/77/18
f 63/50/14 287/34/14 289/38/14 50/51/14
f 62/54/13 286/32/13 288/36/13 64/40/13
f 61/57/12 285/30/12 287/34/12 63/50/12
f 60/59/11 284/27/11 286/32/11 62/54/11
f 59/61/10 283/24/10 285/30/10 61/57/10
f 58/63/9 282/22/9 290/18/9 54/64/9
f 57/67/8 281/28/8 284/27/8 60/59/8
f 56/69/7 280/17/7 283/24/7 59/61/7
f 55/71/6 279/14/6 282/22/6 58/63/6
f 53/73/5 278/11/5 281/20/5 57/74/5
f 54/64/4 290/18/4 280/17/4 56/69/4
f 52/76/3 277/7/3 279/14/3 55/71/3
f 51/78/2 276/12/2 278/11/2 53/73/2
f 49/39/1 275/8/1 277/7/1 52/76/1
f 70/37/18 71/9/18 276/12/18 289/38/18
