# Corazon
# Cara Delantera
v 0.00 -0.70 -0.10
v 0.10 -0.58 -0.10
v 0.20 -0.48 -0.10
v 0.30 -0.38 -0.10
v 0.38 -0.28 -0.10
v 0.47 -0.19 -0.10
v 0.59 -0.09 -0.10
v 0.70 0.00 -0.10
v 0.78 0.12 -0.10
v 0.82 0.27 -0.10
v 0.83 0.37 -0.10
v 0.79 0.49 -0.10
v 0.74 0.55 -0.10
v 0.67 0.60 -0.10
v 0.58 0.64 -0.10
v 0.50 0.65 -0.10
v 0.43 0.63 -0.10
v 0.33 0.61 -0.10
v 0.24 0.58 -0.10
v 0.17 0.54 -0.10
v 0.13 0.47 -0.10
v 0.10 0.40 -0.10
v 0.05 0.34 -0.10
v 0.00 0.25 -0.10
v -0.03 0.30 -0.10
v -0.09 0.40 -0.10
v -0.20 0.48 -0.10
v -0.30 0.55 -0.10
v -0.40 0.58 -0.10
v -0.50 0.57 -0.10
v -0.60 0.55 -0.10
v -0.69 0.49 -0.10
v -0.74 0.44 -0.10
v -0.80 0.38 -0.10
v -0.83 0.29 -0.10
v -0.84 0.20 -0.10
v -0.85 0.10 -0.10
v -0.83 0.00 -0.10
v -0.80 -0.10 -0.10
v -0.70 -0.20 -0.10
v -0.60 -0.28 -0.10
v -0.53 -0.35 -0.10
v -0.48 -0.40 -0.10
v -0.30 -0.48 -0.10
v -0.20 -0.55 -0.10
v -0.10 -0.60 -0.10
v 0.00 -0.70 -0.10

# Cara Trasera
v 0.00 -0.70 0.10
v 0.10 -0.58 0.10
v 0.20 -0.48 0.10
v 0.30 -0.38 0.10
v 0.38 -0.28 0.10
v 0.47 -0.19 0.10
v 0.59 -0.09 0.10
v 0.70 0.00 0.10
v 0.78 0.12 0.10
v 0.82 0.27 0.10
v 0.83 0.37 0.10
v 0.79 0.49 0.10
v 0.74 0.55 0.10
v 0.67 0.60 0.10
v 0.58 0.64 0.10
v 0.50 0.65 0.10
v 0.43 0.63 0.10
v 0.33 0.61 0.10
v 0.24 0.58 0.10
v 0.17 0.54 0.10
v 0.13 0.47 0.10
v 0.10 0.40 0.10
v 0.05 0.34 0.10
v 0.00 0.25 0.10
v -0.03 0.30 0.10
v -0.09 0.40 0.10
v -0.20 0.48 0.10
v -0.30 0.55 0.10
v -0.40 0.58 0.10
v -0.50 0.57 0.10
v -0.60 0.55 0.10
v -0.69 0.49 0.10
v -0.74 0.44 0.10
v -0.80 0.38 0.10
v -0.83 0.29 0.10
v -0.84 0.20 0.10
v -0.85 0.10 0.10
v -0.83 0.00 0.10
v -0.80 -0.10 0.10
v -0.70 -0.20 0.10
v -0.60 -0.28 0.10
v -0.53 -0.35 0.10
v -0.48 -0.40 0.10
v -0.30 -0.48 0.10
v -0.20 -0.55 0.10
v -0.10 -0.60 0.10
v 0.00 -0.70 0.10

# Lineas Cara Delantera
l 1 2
l 2 3
l 3 4
l 4 5
l 5 6
l 6 7
l 7 8
l 8 9
l 9 10
l 10 11
l 11 12
l 12 13
l 13 14
l 14 15
l 15 16
l 16 17
l 17 18
l 18 19
l 19 20
l 20 21
l 21 22
l 22 23
l 23 24
l 24 25
l 25 26
l 26 27
l 27 28
l 28 29
l 29 30
l 30 31
l 31 32
l 32 33
l 33 34
l 34 35
l 35 36
l 36 37
l 37 38
l 38 39
l 39 40
l 40 41
l 41 42
l 42 43
l 43 44
l 44 45
l 45 46
l 46 47

# Lineas Cara Trasera
l 48 49
l 49 50
l 50 51
l 51 52
l 52 53
l 53 54
l 54 55
l 55 56
l 56 57
l 57 58
l 58 59
l 59 60
l 60 61
l 61 62
l 62 63
l 63 64
l 64 65
l 65 66
l 66 67
l 67 68
l 68 69
l 69 70
l 70 71
l 71 72
l 72 73
l 73 74
l 74 75
l 75 76
l 76 77
l 77 78
l 78 79
l 79 80
l 80 81
l 81 82
l 82 83
l 83 84
l 84 85
l 85 86
l 86 87
l 87 88
l 88 89
l 89 90
l 90 91
l 91 92
l 92 93
l 93 94

# Puentes
l 1 48
l 2 49
l 3 50
l 4 51
l 5 52
l 6 53
l 7 54
l 8 55
l 9 56
l 10 57
l 11 58
l 12 59
l 13 60
l 14 61
l 15 62
l 16 63
l 17 64
l 18 65
l 19 66
l 20 67
l 21 68
l 22 69
l 23 70
l 24 71
l 25 72
l 26 73
l 27 74
l 28 75
l 29 76
l 30 77
l 31 78
l 32 79
l 33 80
l 34 81
l 35 82
l 36 83
l 37 84
l 38 85
l 39 86
l 40 87
l 41 88
l 42 89
l 43 90
l 44 91
l 45 92
l 46 93
l 47 94