# Blender 5.0.1
# www.blender.org
mtllib GatoLowPoly.mtl
o Plane
v -1.192151 -0.006659 0.263815
v 1.546922 0.460143 0.230096
v -1.200036 -0.305879 0.264666
v 1.800942 0.112020 0.263872
v -0.623696 -0.594920 0.295795
v 0.766627 0.234522 0.263872
v 1.075457 0.000000 0.263872
v -0.805628 -0.178001 0.302630
v -0.358486 -0.000000 0.263872
v -0.845596 -0.121691 0.263872
v -1.126357 -0.490816 0.266758
v 1.197732 -0.314705 0.263508
v -0.734045 -0.359392 0.279526
v -0.253696 -0.352631 0.279526
v 0.060068 -0.354587 0.291507
v 0.885955 -0.362772 0.279496
v 1.230571 -0.121548 0.263872
v 1.230571 -0.121548 0.263872
v 0.886249 -0.362831 0.264172
v -0.303490 -0.356030 0.300588
v 1.702617 0.303798 0.263804
v -1.150831 -0.101877 0.267211
v -0.828192 0.028484 0.263872
v 0.566506 0.119530 0.263872
v 1.694462 -0.034876 0.263872
v -0.721947 -0.367444 0.302582
v 1.210733 -0.311379 0.263872
v -1.126355 -0.490815 0.266758
v 1.037954 -0.071871 0.263872
v -0.186027 0.282933 0.264566
v -0.002220 0.000000 0.263872
v 0.135816 0.131023 0.263872
v -0.358486 0.000000 0.263872
v -1.085925 -0.622690 0.067130
v 1.015537 -0.707386 -0.002171
v -1.232652 -0.006655 -0.002228
v 1.564976 0.447982 -0.002167
v -1.194001 -0.251124 -0.002747
v 1.800804 0.112024 -0.002170
v -0.622634 -0.597088 -0.002171
v -0.149045 -0.705258 -0.002171
v 0.696723 -0.725540 -0.002171
v 1.230813 0.482166 -0.002170
v 1.230432 -0.121543 -0.002170
v -1.170749 -0.419024 0.001066
v -1.152229 -0.105650 0.001677
v 1.694324 -0.034872 -0.002170
v 0.285323 -0.712094 -0.002211
v 1.702423 0.305005 -0.002169
v 1.230875 0.482164 0.115480
v -1.126496 -0.490812 0.000715
v 0.221753 0.268390 0.000000
v -1.232590 -0.006656 0.115422
v 1.210594 -0.311374 -0.002170
v 1.015599 -0.707388 0.115480
v -0.622572 -0.597090 0.115480
v -1.083395 -0.622079 0.181756
v -0.148984 -0.705260 0.115480
v 0.696785 -0.725542 0.115480
v -0.028619 -0.707812 0.295903
v 1.556407 0.450489 0.082208
v -1.419086 1.510352 0.024598
v -1.701820 1.483338 -0.030911
v -1.701759 1.483337 0.086739
v 1.006698 -0.704315 0.261141
v 1.203109 0.463016 0.262435
v 0.881061 -0.707125 -0.002171
v 1.427956 0.471305 -0.002170
v 1.419055 0.471303 0.082208
v 0.881123 -0.707127 0.115480
v 1.230875 0.482164 0.115480
v 1.428017 0.471303 0.115480
v 1.509752 0.577983 0.082194
v 1.515547 0.576311 0.230586
v 0.881061 -0.707125 -0.002171
v 1.015537 -0.707386 -0.002171
v 1.015599 -0.707388 0.115480
v 0.696723 -0.725540 -0.002171
v 0.696785 -0.725542 0.115480
v 0.881123 -0.707127 0.115480
v 1.261696 -1.349066 -0.002220
v 1.278861 -1.247607 0.115431
v 1.261757 -1.349068 0.115431
v -1.004075 -0.233903 0.263921
v -0.877566 -0.590384 0.263872
v -0.946140 -0.407123 0.265304
v -1.012169 -0.074940 0.265781
v -1.000454 0.083854 -0.002199
v -0.877705 -0.590380 -0.002170
v -0.866687 0.158428 0.123120
v -0.877643 -0.590382 0.115480
v -1.583074 1.569260 -0.057942
v -1.583013 1.569258 0.059708
v -0.671053 -1.322408 0.001938
v -0.703593 -1.383771 0.184778
v -0.931983 -1.375278 0.087962
v -0.905853 -1.388522 0.223993
v -0.840716 0.166397 0.263823
v -0.491746 -0.355982 0.296157
v -0.002178 0.000040 0.263880
v 1.075457 0.000000 0.263872
v -0.383744 -0.651651 -0.002171
v -0.383683 -0.651653 0.115480
v -0.225084 0.278608 -0.002248
v -0.383744 -0.651651 -0.002171
v -0.149045 -0.705258 -0.002171
v -0.622572 -0.597090 0.115480
v -0.622634 -0.597088 -0.002171
v -0.148984 -0.705260 0.115480
v -0.383683 -0.651653 0.115480
v -1.060957 0.437079 0.136976
v -1.330250 0.832013 0.131057
v -1.384134 1.464441 0.094735
v -1.365630 1.415676 -0.030094
v -1.347767 0.891836 0.008693
v -1.084380 0.465744 0.029174
v -0.871446 0.163297 -0.001702
v -1.330224 0.200155 -0.002174
v -1.514688 0.360043 0.001417
v -1.718977 1.155844 -0.005842
v -1.713341 1.075356 0.098339
v -1.534310 0.405286 0.119461
v -1.330163 0.200153 0.115477
v -1.098026 0.290663 -0.002145
v -1.403602 0.742073 0.027317
v -1.557317 1.070230 0.027952
v -1.097965 0.290661 0.115506
v -1.236761 0.390928 0.145425
v -1.543153 1.072346 0.141293
v -1.163193 -0.939898 0.167772
v -1.107109 -1.164616 0.172993
v -1.153647 -0.934138 0.051836
v -1.008192 -0.933843 0.018073
v -0.891897 -1.235001 0.006538
v -0.800043 -1.028160 -0.002171
v -0.783839 -0.811355 -0.002171
v -0.783777 -0.811357 0.115479
v -0.799981 -1.028162 0.115479
v -0.902144 -1.129443 0.114832
v -0.892164 -1.269463 0.130097
v -0.976873 -0.903789 0.130824
v -0.261887 -1.368586 -0.002109
v -0.411792 -1.280721 -0.002109
v -0.196301 -1.366017 0.115538
v -0.373048 -1.289742 0.115541
v -0.211480 -1.200451 -0.002125
v -0.768276 -1.049466 -0.002123
v -0.198772 -1.220801 0.115527
v -0.423651 -1.015338 -0.002139
v -0.424468 -1.014542 0.115510
v -0.742512 -0.930686 0.115506
v -0.208416 -0.851645 0.115490
v -0.672918 -0.777337 -0.002161
v -0.207795 -0.849592 -0.002160
v -0.164227 -1.351112 -0.002114
v -0.744104 -1.076924 0.115532
v 0.737257 -0.876838 -0.002188
v 1.026537 -1.313731 -0.002218
v 1.132586 -1.173617 -0.002209
v 1.018159 -1.316647 0.115433
v 1.129495 -1.169972 0.115442
v 0.726527 -0.867228 0.115462
v 0.263511 -1.377477 0.014332
v 0.470522 -1.401871 0.141021
v 0.700231 -0.725571 0.279536
v 0.716972 0.000000 0.263872
v -0.622495 -0.597092 0.263872
v 0.860608 0.182638 0.263872
v -1.085786 -0.622695 0.263872
v 0.284504 -0.712075 0.114415
v 0.766489 0.234527 -0.002170
v 0.443427 -1.418824 0.015584
v 0.271726 -1.382115 0.128857
v 0.298513 -0.921765 -0.002159
v 0.587919 -0.911940 0.130354
v 0.438843 -1.195054 0.160995
v 0.419628 -1.215392 0.030736
v 0.326902 -1.239902 0.007888
v 0.301775 -0.895949 0.117150
v 0.376407 -1.066688 0.127952
v 0.380761 -1.423771 0.128216
v -1.130334 -1.131189 0.054081
v -0.889346 -1.142778 -0.001159
v -0.690771 -1.309338 0.114412
v 0.946987 -0.707253 -0.002171
v 1.464605 0.451203 0.082208
v 1.416629 0.469822 0.230358
v 1.344740 0.010881 0.263872
v 1.119886 -0.143012 0.263872
v 0.947049 -0.707255 0.115480
v 0.946987 -0.707253 -0.002171
v 0.947049 -0.707255 0.115480
v 1.278800 -1.247605 -0.002216
v -1.152091 -0.105655 0.267720
v -0.828192 0.028484 0.263872
v 0.566506 0.119530 0.263872
v -0.358516 -0.071170 0.299473
v 1.037954 -0.071871 0.263872
v 0.135816 0.131023 0.263872
v -1.085925 -0.622690 0.067130
v -1.126496 -0.490812 0.000715
v -1.152168 -0.105652 0.119328
v -1.085864 -0.622692 0.184780
v 1.344740 0.010881 0.263872
v -1.005360 -0.228333 0.264498
v -0.877566 -0.590384 0.263872
v -0.946140 -0.407123 0.265304
v -1.012169 -0.074940 0.265781
v -0.877643 -0.590382 0.115480
v -0.845533 -0.121230 0.263946
v -0.622572 -0.597090 0.115480
v 0.716972 0.000000 0.263872
v 0.580564 -0.358136 0.299047
v 0.860608 0.182638 0.263872
v 0.694537 -0.071201 0.299010
v 1.119886 -0.143012 0.263872
v -1.192151 -0.006659 -0.263815
v 1.546922 0.460143 -0.230096
v -1.200036 -0.305879 -0.264666
v 1.800942 0.112020 -0.263872
v -0.623696 -0.594920 -0.295795
v 0.766627 0.234522 -0.263872
v 1.075457 0.000000 -0.263872
v -0.805628 -0.178001 -0.302630
v -0.358486 -0.000000 -0.263872
v -0.845596 -0.121691 -0.263872
v -1.126357 -0.490816 -0.266758
v 1.197732 -0.314705 -0.263508
v -0.734045 -0.359392 -0.279526
v -0.253696 -0.352631 -0.279526
v 0.060068 -0.354587 -0.291507
v 0.885955 -0.362772 -0.279496
v 1.230571 -0.121548 -0.263872
v 1.230571 -0.121548 -0.263872
v 0.886249 -0.362831 -0.264172
v -0.303490 -0.356030 -0.300588
v 1.702617 0.303798 -0.263804
v -1.150831 -0.101877 -0.267211
v -0.828192 0.028484 -0.263872
v 0.566506 0.119530 -0.263872
v 1.694462 -0.034876 -0.263872
v -0.721947 -0.367444 -0.302582
v 1.210733 -0.311379 -0.263872
v -1.126355 -0.490815 -0.266758
v 1.037954 -0.071871 -0.263872
v -0.186027 0.282933 -0.264566
v -0.002220 0.000000 -0.263872
v 0.135816 0.131023 -0.263872
v -0.358486 0.000000 -0.263872
v -1.085925 -0.622690 -0.067130
v 1.015537 -0.707386 0.002171
v -1.232652 -0.006655 0.002228
v 1.564976 0.447982 0.002167
v -1.194001 -0.251124 0.002747
v 1.800804 0.112024 0.002170
v -0.622634 -0.597088 0.002171
v -0.149045 -0.705258 0.002171
v 0.696723 -0.725540 0.002171
v 1.230813 0.482166 0.002170
v 1.230432 -0.121543 0.002170
v -1.170749 -0.419024 -0.001066
v -1.152229 -0.105650 -0.001677
v 1.694324 -0.034872 0.002170
v 0.285323 -0.712094 0.002211
v 1.702423 0.305005 0.002169
v 1.230875 0.482164 -0.115480
v -1.126496 -0.490812 -0.000715
v -1.232590 -0.006656 -0.115422
v 1.210594 -0.311374 0.002170
v 1.015599 -0.707388 -0.115480
v -0.622572 -0.597090 -0.115480
v -1.083395 -0.622079 -0.181756
v -0.148984 -0.705260 -0.115480
v 0.696785 -0.725542 -0.115480
v -0.028619 -0.707812 -0.295903
v 1.556407 0.450489 -0.082208
v -1.419086 1.510352 -0.024598
v -1.701820 1.483338 0.030911
v -1.701759 1.483337 -0.086739
v 1.006698 -0.704315 -0.261141
v 1.203109 0.463016 -0.262435
v 0.881061 -0.707125 0.002171
v 1.427956 0.471305 0.002170
v 1.419055 0.471303 -0.082208
v 0.881123 -0.707127 -0.115480
v 1.230875 0.482164 -0.115480
v 1.428017 0.471303 -0.115480
v 1.509752 0.577983 -0.082194
v 1.515547 0.576311 -0.230586
v 0.881061 -0.707125 0.002171
v 1.015537 -0.707386 0.002171
v 1.015599 -0.707388 -0.115480
v 0.696723 -0.725540 0.002171
v 0.696785 -0.725542 -0.115480
v 0.881123 -0.707127 -0.115480
v 1.261696 -1.349066 0.002220
v 1.278861 -1.247607 -0.115431
v 1.261757 -1.349068 -0.115431
v -1.004075 -0.233903 -0.263921
v -0.877566 -0.590384 -0.263872
v -0.946140 -0.407123 -0.265304
v -1.012169 -0.074940 -0.265781
v -1.000454 0.083854 0.002199
v -0.877705 -0.590380 0.002170
v -0.866687 0.158428 -0.123120
v -0.877643 -0.590382 -0.115480
v -1.583074 1.569260 0.057942
v -1.583013 1.569258 -0.059708
v -0.671053 -1.322408 -0.001938
v -0.703593 -1.383771 -0.184778
v -0.931983 -1.375278 -0.087962
v -0.905853 -1.388522 -0.223993
v -0.840716 0.166397 -0.263823
v -0.491746 -0.355982 -0.296157
v -0.002178 0.000040 -0.263880
v 1.075457 0.000000 -0.263872
v -0.383744 -0.651651 0.002171
v -0.383683 -0.651653 -0.115480
v -0.225084 0.278608 0.002248
v -0.383744 -0.651651 0.002171
v -0.149045 -0.705258 0.002171
v -0.622572 -0.597090 -0.115480
v -0.622634 -0.597088 0.002171
v -0.148984 -0.705260 -0.115480
v -0.383683 -0.651653 -0.115480
v -1.060957 0.437079 -0.136976
v -1.330250 0.832013 -0.131057
v -1.384134 1.464441 -0.094735
v -1.365630 1.415676 0.030094
v -1.347767 0.891836 -0.008693
v -1.084380 0.465744 -0.029174
v -0.871446 0.163297 0.001702
v -1.330224 0.200155 0.002174
v -1.514688 0.360043 -0.001417
v -1.718977 1.155844 0.005842
v -1.713341 1.075356 -0.098339
v -1.534310 0.405286 -0.119461
v -1.330163 0.200153 -0.115477
v -1.098026 0.290663 0.002145
v -1.403602 0.742073 -0.027317
v -1.557317 1.070230 -0.027952
v -1.097965 0.290661 -0.115506
v -1.236761 0.390928 -0.145425
v -1.543153 1.072346 -0.141293
v -1.163193 -0.939898 -0.167772
v -1.107109 -1.164616 -0.172993
v -1.153647 -0.934138 -0.051836
v -1.008192 -0.933843 -0.018073
v -0.891897 -1.235001 -0.006538
v -0.800043 -1.028160 0.002171
v -0.783839 -0.811355 0.002171
v -0.783777 -0.811357 -0.115479
v -0.799981 -1.028162 -0.115479
v -0.902144 -1.129443 -0.114832
v -0.892164 -1.269463 -0.130097
v -0.976873 -0.903789 -0.130824
v -0.261887 -1.368586 0.002109
v -0.411792 -1.280721 0.002109
v -0.196301 -1.366017 -0.115538
v -0.373048 -1.289742 -0.115541
v -0.211480 -1.200451 0.002125
v -0.768276 -1.049466 0.002123
v -0.198772 -1.220801 -0.115527
v -0.423651 -1.015338 0.002139
v -0.424468 -1.014542 -0.115510
v -0.742512 -0.930686 -0.115506
v -0.208416 -0.851645 -0.115490
v -0.672918 -0.777337 0.002161
v -0.207795 -0.849592 0.002160
v -0.164227 -1.351112 0.002114
v -0.744104 -1.076924 -0.115532
v 0.737257 -0.876838 0.002188
v 1.026537 -1.313731 0.002218
v 1.132586 -1.173617 0.002209
v 1.018159 -1.316647 -0.115433
v 1.129495 -1.169972 -0.115442
v 0.726527 -0.867228 -0.115462
v 0.263511 -1.377477 -0.014332
v 0.470522 -1.401871 -0.141021
v 0.700231 -0.725571 -0.279536
v 0.716972 0.000000 -0.263872
v -0.622495 -0.597092 -0.263872
v 0.860608 0.182638 -0.263872
v -1.085786 -0.622695 -0.263872
v 0.284504 -0.712075 -0.114415
v 0.766489 0.234527 0.002170
v 0.443427 -1.418824 -0.015584
v 0.271726 -1.382115 -0.128857
v 0.298513 -0.921765 0.002159
v 0.587919 -0.911940 -0.130354
v 0.438843 -1.195054 -0.160995
v 0.419628 -1.215392 -0.030736
v 0.326902 -1.239902 -0.007888
v 0.301775 -0.895949 -0.117150
v 0.376407 -1.066688 -0.127952
v 0.380761 -1.423771 -0.128216
v -1.130334 -1.131189 -0.054081
v -0.889346 -1.142778 0.001159
v -0.690771 -1.309338 -0.114412
v 0.946987 -0.707253 0.002171
v 1.464605 0.451203 -0.082208
v 1.416629 0.469822 -0.230358
v 1.344740 0.010881 -0.263872
v 1.119886 -0.143012 -0.263872
v 0.947049 -0.707255 -0.115480
v 0.946987 -0.707253 0.002171
v 0.947049 -0.707255 -0.115480
v 1.278800 -1.247605 0.002216
v -1.152091 -0.105655 -0.267720
v -0.828192 0.028484 -0.263872
v 0.566506 0.119530 -0.263872
v -0.358516 -0.071170 -0.299473
v 1.037954 -0.071871 -0.263872
v 0.135816 0.131023 -0.263872
v -1.085925 -0.622690 -0.067130
v -1.126496 -0.490812 -0.000715
v -1.152168 -0.105652 -0.119328
v -1.085864 -0.622692 -0.184780
v 1.344740 0.010881 -0.263872
v -1.005360 -0.228333 -0.264498
v -0.877566 -0.590384 -0.263872
v -0.946140 -0.407123 -0.265304
v -1.012169 -0.074940 -0.265781
v -0.877643 -0.590382 -0.115480
v -0.845533 -0.121230 -0.263946
v -0.622572 -0.597090 -0.115480
v 0.716972 0.000000 -0.263872
v 0.580564 -0.358136 -0.299047
v 0.860608 0.182638 -0.263872
v 0.694537 -0.071201 -0.299010
v 1.119886 -0.143012 -0.263872
vn -0.0000 -0.0000 1.0000
vn 0.0097 0.0012 1.0000
vn -0.1142 0.5033 0.8565
vn 0.0059 0.0050 1.0000
vn 0.0006 0.0007 1.0000
vn -0.0001 0.0003 1.0000
vn 0.8971 -0.4419 -0.0005
vn -0.0000 1.0000 -0.0000
vn 0.8478 0.5244 -0.0792
vn -0.9612 0.2760 0.0011
vn -0.0326 -0.9995 0.0005
vn -0.0019 -0.9998 0.0210
vn -0.9891 -0.1381 -0.0506
vn -0.8929 -0.3788 0.2433
vn -0.4638 0.8859 0.0003
vn -0.0001 0.0031 1.0000
vn -0.7322 0.6801 0.0363
vn -0.0000 0.0001 -1.0000
vn -0.0000 -0.0000 -1.0000
vn 0.9848 -0.0058 0.1733
vn 0.4088 0.5357 0.7389
vn -0.1752 0.9845 0.0097
vn 0.1237 0.0674 0.9900
vn 0.1391 0.0267 -0.9899
vn 0.0029 0.0016 -1.0000
vn -0.0885 -0.0338 0.9955
vn 0.8163 0.5771 -0.0239
vn 0.2115 -0.0959 0.9727
vn -0.9772 0.2115 0.0204
vn -0.7740 -0.6327 -0.0267
vn -0.0937 0.0070 -0.9956
vn -0.0745 0.0493 -0.9960
vn -0.0530 -0.0816 -0.9953
vn -0.0000 -0.0001 -1.0000
vn 0.6020 -0.7984 -0.0108
vn -0.9362 0.3280 -0.1262
vn -0.0000 -0.0001 1.0000
vn -0.0034 -0.0452 -0.9990
vn 0.2138 0.0974 -0.9720
vn -0.4706 0.8824 0.0003
vn -0.0783 0.0288 0.9965
vn 0.8809 -0.4700 -0.0566
vn -0.0436 0.0441 0.9981
vn -0.4760 -0.0052 0.8794
vn 0.6480 0.7615 -0.0160
vn 0.1240 0.3968 0.9095
vn 0.9384 0.3434 0.0378
vn 0.0190 0.2287 0.9733
vn 0.0004 -0.0024 1.0000
vn 0.0239 0.0307 0.9992
vn 0.0071 -0.0112 0.9999
vn 0.0004 -0.0000 1.0000
vn 0.0047 0.0018 1.0000
vn 0.1533 -0.9882 -0.0001
vn 0.0014 0.0016 1.0000
vn -0.9559 -0.2938 0.0005
vn 0.0009 0.0005 1.0000
vn -0.0008 -0.0020 1.0000
vn -0.9558 -0.2940 0.0009
vn 0.0006 -0.0021 1.0000
vn -0.0001 0.4474 0.8943
vn 0.0018 0.0043 1.0000
vn -0.7712 -0.6366 0.0092
vn -0.0380 0.0220 0.9990
vn -0.0163 -0.9999 -0.0020
vn -0.1754 0.9835 0.0450
vn -0.1961 -0.4497 -0.8714
vn -0.0136 -0.9999 0.0001
vn 0.7199 0.6921 0.0525
vn 0.0218 0.9972 0.0719
vn -0.9719 0.2341 0.0260
vn -0.4259 0.9018 0.0730
vn 0.7074 0.7068 0.0015
vn 0.9904 -0.1362 0.0228
vn 0.1837 -0.9830 -0.0001
vn -0.1961 -0.9772 0.0817
vn 0.1067 -0.0485 0.9931
vn -0.0225 -0.9997 0.0065
vn 0.8992 -0.4349 0.0473
vn -0.1880 0.9819 -0.0209
vn 0.0549 0.9984 0.0148
vn 0.0230 0.9995 -0.0196
vn 0.8097 -0.5869 -0.0004
vn -0.9081 -0.4169 0.0391
vn 0.8904 0.4552 0.0005
vn -0.5862 0.8102 0.0003
vn -0.9983 0.0410 0.0405
vn -0.0832 0.0995 0.9916
vn 0.0998 -0.0389 -0.9942
vn 0.0796 -0.9965 -0.0242
vn 0.0098 -0.0043 0.9999
vn 0.9648 0.2607 -0.0347
vn 0.0592 -0.0327 0.9977
vn 0.0003 0.4443 0.8959
vn -0.0000 0.0001 1.0000
vn 0.0550 0.9985 -0.0000
vn -0.0550 -0.9984 0.0148
vn -0.1401 -0.9900 -0.0172
vn 0.4564 0.8897 -0.0079
vn 0.0240 -0.1328 -0.9909
vn 0.3636 0.9183 0.1567
vn -0.0920 0.1541 0.9838
vn 0.0104 -0.0133 0.9999
vn -0.7503 -0.6562 0.0802
vn 0.0016 0.0103 0.9999
vn -0.1623 -0.0609 0.9849
vn -0.0043 0.0176 0.9998
vn 0.0598 -0.9722 -0.2263
vn 0.1583 0.6263 0.7633
vn 0.0717 0.0476 0.9963
vn -0.2227 -0.9748 0.0103
vn -0.0000 0.0004 1.0000
vn -0.0689 0.0366 0.9970
vn 0.1756 -0.9815 -0.0765
vn -0.1008 -0.1194 0.9877
vn 0.0910 -0.1670 0.9818
vn -0.0000 0.0003 -1.0000
vn 0.0096 0.1085 -0.9941
vn -0.1546 -0.0752 -0.9851
vn 0.0514 0.0527 -0.9973
vn 0.2669 0.1269 -0.9553
vn 0.0963 0.1680 -0.9811
vn -0.0764 -0.0949 -0.9925
vn -0.0159 0.0069 0.9999
vn -0.0282 -0.1415 0.9895
vn -0.9044 -0.4267 0.0005
vn -0.2451 -0.0350 0.9689
vn -0.6814 -0.7272 0.0830
vn -0.9621 -0.2535 -0.1008
vn 0.8365 0.5446 0.0606
vn 0.8201 0.5722 -0.0089
vn 0.9980 0.0624 0.0068
vn 0.2285 0.0431 0.9726
vn 0.3135 -0.0529 0.9481
vn 0.7991 -0.6012 -0.0004
vn 0.9972 -0.0745 -0.0005
vn 0.7459 -0.6614 0.0784
vn -0.2856 0.0792 -0.9551
vn 0.6351 0.7721 0.0216
vn -0.2181 -0.0429 -0.9750
vn 0.0316 0.0134 0.9994
vn -0.3425 -0.3965 -0.8517
vn -0.9825 -0.1845 0.0264
vn 0.0821 -0.0061 0.9966
vn 0.0480 -0.0548 0.9973
vn -0.9670 0.2458 -0.0674
vn -0.0383 -0.0163 -0.9991
vn -0.4423 -0.8802 0.1720
vn -0.2815 -0.0721 -0.9568
vn -0.5210 -0.8535 0.0070
vn 0.6661 0.7453 0.0283
vn -0.9790 0.0107 0.2036
vn 0.9264 -0.3766 -0.0011
vn 0.6090 -0.7931 0.0096
vn -0.0000 0.0002 1.0000
vn -0.9466 0.3136 -0.0753
vn 0.9807 0.1648 0.1054
vn 0.9704 0.2413 0.0088
vn -0.9718 -0.2331 -0.0345
vn -0.8352 -0.5474 -0.0523
vn 0.9692 0.1479 -0.1971
vn 0.2251 -0.9708 0.0826
vn -0.1133 -0.1127 0.9871
vn -0.2743 -0.9558 -0.1061
vn -0.0685 -0.1241 0.9899
vn -0.4753 0.8795 0.0248
vn -0.0248 -0.9995 -0.0193
vn 0.0490 0.2188 0.9745
vn 0.0182 -0.0008 0.9998
vn 0.0011 0.0021 1.0000
vn 0.0284 -0.0577 -0.9979
vn -0.1105 0.4447 0.8888
vn 0.8689 -0.4947 0.0176
vn 0.2415 -0.0091 -0.9704
vn -0.0277 -0.0340 -0.9990
vn -0.0182 0.0520 0.9985
vn -0.9969 -0.0770 0.0188
vn -0.1433 0.1808 0.9730
vn -0.9966 0.0701 0.0426
vn 0.0062 0.0008 1.0000
vn 0.0997 0.1149 0.9884
vn 0.2514 0.1226 0.9601
vn 0.9861 -0.1662 -0.0005
vn 0.0001 -0.0000 1.0000
vn 0.1825 0.9808 0.0695
vn -0.0019 0.0026 1.0000
vn -0.2691 0.4060 0.8734
vn -0.7619 0.6477 -0.0060
vn 0.0017 -0.0038 1.0000
vn 0.0097 0.0012 -1.0000
vn -0.1142 0.5033 -0.8565
vn 0.0059 0.0050 -1.0000
vn 0.0006 0.0007 -1.0000
vn -0.0001 0.0003 -1.0000
vn 0.8971 -0.4419 0.0005
vn 0.8478 0.5244 0.0792
vn -0.9612 0.2760 -0.0011
vn -0.0326 -0.9995 -0.0005
vn -0.0019 -0.9998 -0.0210
vn -0.9891 -0.1381 0.0506
vn -0.8929 -0.3788 -0.2433
vn -0.4638 0.8859 -0.0003
vn -0.0001 0.0031 -1.0000
vn -0.7322 0.6801 -0.0363
vn 0.9848 -0.0058 -0.1733
vn 0.4088 0.5357 -0.7389
vn -0.1752 0.9845 -0.0097
vn 0.1237 0.0674 -0.9900
vn 0.1391 0.0267 0.9899
vn 0.0029 0.0016 1.0000
vn -0.0885 -0.0338 -0.9955
vn 0.8163 0.5771 0.0239
vn 0.2115 -0.0959 -0.9727
vn -0.9772 0.2115 -0.0204
vn -0.7740 -0.6327 0.0267
vn -0.0937 0.0070 0.9956
vn -0.0745 0.0493 0.9960
vn -0.0530 -0.0816 0.9953
vn 0.6020 -0.7984 0.0108
vn -0.9362 0.3280 0.1262
vn -0.0034 -0.0452 0.9990
vn 0.2138 0.0974 0.9720
vn -0.4706 0.8824 -0.0003
vn -0.0783 0.0288 -0.9965
vn 0.8809 -0.4700 0.0566
vn -0.0436 0.0441 -0.9981
vn -0.4760 -0.0052 -0.8794
vn 0.6480 0.7615 0.0160
vn 0.1240 0.3968 -0.9095
vn 0.9384 0.3434 -0.0378
vn 0.0190 0.2287 -0.9733
vn 0.0004 -0.0024 -1.0000
vn 0.0239 0.0307 -0.9992
vn 0.0071 -0.0112 -0.9999
vn 0.0004 -0.0000 -1.0000
vn 0.0047 0.0018 -1.0000
vn 0.1533 -0.9882 0.0001
vn 0.0014 0.0016 -1.0000
vn -0.9559 -0.2938 -0.0005
vn 0.0009 0.0005 -1.0000
vn -0.0008 -0.0020 -1.0000
vn -0.9558 -0.2940 -0.0009
vn 0.0006 -0.0021 -1.0000
vn -0.0001 0.4474 -0.8943
vn 0.0018 0.0043 -1.0000
vn -0.7712 -0.6366 -0.0092
vn -0.0380 0.0220 -0.9990
vn -0.0163 -0.9999 0.0020
vn -0.1754 0.9835 -0.0450
vn -0.1961 -0.4497 0.8714
vn -0.0136 -0.9999 -0.0001
vn 0.7199 0.6921 -0.0525
vn 0.0218 0.9972 -0.0719
vn -0.9719 0.2341 -0.0260
vn -0.4259 0.9018 -0.0730
vn 0.7074 0.7068 -0.0015
vn 0.9904 -0.1362 -0.0228
vn 0.1837 -0.9830 0.0001
vn -0.1961 -0.9772 -0.0817
vn 0.1067 -0.0485 -0.9931
vn -0.0225 -0.9997 -0.0065
vn 0.8992 -0.4349 -0.0473
vn -0.1880 0.9819 0.0209
vn 0.0549 0.9984 -0.0148
vn 0.0230 0.9995 0.0196
vn 0.8097 -0.5869 0.0004
vn -0.9081 -0.4169 -0.0391
vn 0.8904 0.4552 -0.0005
vn -0.5862 0.8102 -0.0003
vn -0.9983 0.0410 -0.0405
vn -0.0832 0.0995 -0.9916
vn 0.0998 -0.0389 0.9942
vn 0.0796 -0.9965 0.0242
vn 0.0098 -0.0043 -0.9999
vn 0.9648 0.2607 0.0347
vn 0.0592 -0.0327 -0.9977
vn 0.0003 0.4443 -0.8959
vn -0.0550 -0.9984 -0.0148
vn -0.1401 -0.9900 0.0172
vn 0.4564 0.8897 0.0079
vn 0.0240 -0.1328 0.9909
vn 0.3635 0.9183 -0.1567
vn -0.0920 0.1541 -0.9838
vn 0.0104 -0.0133 -0.9999
vn -0.7503 -0.6562 -0.0802
vn 0.0016 0.0103 -0.9999
vn -0.1623 -0.0609 -0.9849
vn -0.0043 0.0176 -0.9998
vn 0.0598 -0.9722 0.2263
vn 0.1583 0.6263 -0.7633
vn 0.0717 0.0476 -0.9963
vn -0.2227 -0.9748 -0.0103
vn -0.0000 0.0004 -1.0000
vn -0.0689 0.0366 -0.9970
vn 0.1756 -0.9815 0.0765
vn -0.1008 -0.1194 -0.9877
vn 0.0910 -0.1670 -0.9818
vn -0.0000 0.0003 1.0000
vn 0.0096 0.1085 0.9941
vn -0.1546 -0.0752 0.9851
vn 0.0514 0.0527 0.9973
vn 0.2669 0.1269 0.9553
vn 0.0963 0.1680 0.9811
vn -0.0764 -0.0949 0.9925
vn -0.0159 0.0069 -0.9999
vn -0.0282 -0.1415 -0.9895
vn -0.9044 -0.4267 -0.0005
vn -0.2451 -0.0350 -0.9689
vn -0.6814 -0.7272 -0.0830
vn -0.9621 -0.2535 0.1008
vn 0.8365 0.5446 -0.0606
vn 0.8201 0.5722 0.0089
vn 0.9980 0.0624 -0.0068
vn 0.2285 0.0431 -0.9726
vn 0.3135 -0.0529 -0.9481
vn 0.7991 -0.6012 0.0004
vn 0.9972 -0.0745 0.0005
vn 0.7459 -0.6614 -0.0784
vn -0.2856 0.0792 0.9551
vn 0.6351 0.7721 -0.0216
vn -0.2181 -0.0429 0.9750
vn 0.0316 0.0134 -0.9994
vn -0.3425 -0.3965 0.8517
vn -0.9825 -0.1845 -0.0264
vn 0.0821 -0.0061 -0.9966
vn 0.0480 -0.0548 -0.9973
vn -0.9670 0.2458 0.0674
vn -0.0383 -0.0163 0.9991
vn -0.4423 -0.8802 -0.1720
vn -0.2815 -0.0721 0.9568
vn -0.5210 -0.8535 -0.0070
vn 0.6661 0.7453 -0.0283
vn -0.9790 0.0107 -0.2036
vn 0.9264 -0.3766 0.0011
vn 0.6090 -0.7931 -0.0096
vn -0.0000 0.0002 -1.0000
vn -0.9466 0.3136 0.0753
vn 0.9807 0.1648 -0.1054
vn 0.9704 0.2413 -0.0088
vn -0.9718 -0.2331 0.0345
vn -0.8352 -0.5474 0.0523
vn 0.9692 0.1479 0.1971
vn 0.2251 -0.9708 -0.0826
vn -0.1133 -0.1127 -0.9871
vn -0.2743 -0.9558 0.1061
vn -0.0685 -0.1241 -0.9899
vn -0.4753 0.8795 -0.0248
vn -0.0248 -0.9995 0.0193
vn 0.0490 0.2188 -0.9745
vn 0.0182 -0.0008 -0.9998
vn 0.0011 0.0021 -1.0000
vn 0.0284 -0.0577 0.9979
vn -0.1105 0.4447 -0.8888
vn 0.8689 -0.4947 -0.0176
vn 0.2415 -0.0091 0.9704
vn -0.0277 -0.0340 0.9990
vn -0.0182 0.0520 -0.9985
vn -0.9969 -0.0770 -0.0188
vn -0.1433 0.1808 -0.9730
vn -0.9966 0.0701 -0.0426
vn 0.0062 0.0008 -1.0000
vn 0.0997 0.1149 -0.9884
vn 0.2514 0.1226 -0.9601
vn 0.9861 -0.1662 0.0005
vn 0.0001 -0.0000 -1.0000
vn 0.1825 0.9808 -0.0695
vn -0.0019 0.0026 -1.0000
vn -0.2691 0.4060 -0.8734
vn -0.7619 0.6477 0.0060
vn 0.0017 -0.0038 -1.0000
vt 0.600000 0.754838
vt 0.499392 0.500000
vt 0.700000 0.500000
vt 0.175201 1.030035
vt 0.100780 0.754838
vt 0.200000 0.754838
vt 0.200000 0.447133
vt 0.395126 0.452193
vt 0.200069 0.500000
vt 0.378095 0.250006
vt 0.800000 0.450471
vt 0.800000 0.249994
vt 0.908954 0.383743
vt 0.908954 0.450471
vt 1.000000 0.500000
vt 0.999813 0.754838
vt 1.000000 0.383743
vt 1.000000 0.000000
vt 1.000000 0.250000
vt 0.200000 0.000000
vt 0.300885 0.000000
vt 0.000000 0.000000
vt 0.200000 1.000000
vt 0.200000 1.000000
vt 0.000000 0.485150
vt 0.000000 0.754838
vt 0.000000 0.754838
vt 0.801631 0.000000
vt 0.600225 0.000000
vt 0.800000 0.000000
vt 0.993918 0.000000
vt 0.953589 0.000000
vt 0.000000 0.451181
vt 0.000000 0.383743
vt 0.000000 1.000000
vt 0.600000 1.000000
vt 0.789781 0.983406
vt 0.800000 0.500000
vt 0.800000 1.000000
vt 0.908954 1.000000
vt 0.916321 1.000000
vt 0.909240 1.000000
vt 0.971186 1.000000
vt 0.800000 0.000000
vt 0.908954 0.000000
vt 0.200000 0.000000
vt 0.100780 0.000000
vt 0.088216 0.000000
vt 0.408386 0.999676
vt 0.399367 1.000000
vt 0.400000 0.000000
vt 0.200000 0.500000
vt 0.400000 0.500000
vt 0.400000 0.000000
vt 0.200000 0.000000
vt 0.200000 1.000000
vt 0.100780 1.000000
vt 0.000000 1.000000
vt 0.100780 1.000000
vt 0.200000 1.000000
vt 0.100780 0.000000
vt 0.057928 0.000000
vt 0.400000 0.000000
vt 0.200000 0.000000
vt 0.200000 0.000000
vt 0.800000 1.000000
vt 0.601820 0.000000
vt 0.600000 0.000000
vt 0.700000 0.000000
vt 0.800000 0.000000
vt 0.189857 0.000000
vt 1.000000 1.000000
vt 0.980201 1.000000
vt 1.000000 0.450471
vt 0.499381 0.754838
vt 0.700000 0.754838
vt 0.400000 0.250000
vt 0.300885 0.250000
vt 0.199441 0.000000
vt 0.464908 0.000000
vt 0.100780 0.250000
vt 0.000000 0.250000
vt 0.697596 0.247124
vt 0.700000 0.450471
vt 0.200000 0.250000
vt 0.000000 0.250000
vt 0.499381 0.500000
vt 0.400000 0.500000
vt 0.509705 0.250000
vt 0.600067 0.000000
vt 0.196966 1.000000
vt 1.000000 0.754838
vt 0.996589 0.996589
vt 0.991868 0.250000
vt 0.499381 1.000000
vt 0.100780 1.000000
vt 0.100780 1.000000
vt 0.100780 0.458684
vt 0.799928 0.250000
vt 0.100780 0.452816
vt 0.285877 0.000000
vt 0.257577 0.000000
vt 0.764012 0.000000
vt 0.600000 0.000000
vt 0.953589 1.000000
s 0
usemtl Material.001
f 196/1/1 100/2/1 212/3/1
f 98/4/2 87/5/2 23/6/2
f 8/7/3 197/8/3 210/9/3
f 198/11/5 19/12/5 216/13/5
f 188/14/1 189/13/1 17/17/1
f 55/18/7 35/18/7 54/19/7
f 56/20/8 107/20/8 110/21/8
f 67/22/8 75/22/8 78/22/8
f 38/25/10 22/26/10 46/27/10
f 165/28/11 170/29/11 59/30/11
f 65/31/12 190/32/12 55/18/12
f 3/33/13 38/25/13 45/34/13
f 1/35/14 53/35/14 22/26/14
f 6/36/15 66/37/15 171/36/15
f 55/18/8 77/18/8 76/18/8
f 7/38/1 29/11/1 188/14/1
f 50/39/8 72/40/8 71/39/8
f 73/41/17 187/42/17 74/43/17
f 159/22/18 81/22/18 158/22/18
f 185/22/8 191/22/8 75/22/8
f 190/32/8 192/32/8 77/18/8
f 42/44/8 78/44/8 79/30/8
f 59/30/8 79/30/8 80/45/8
f 159/22/19 193/22/19 81/22/19
f 184/20/20 95/20/20 94/46/20
f 140/47/21 131/22/21 97/48/21
f 98/4/22 30/49/22 104/50/22
f 103/21/8 110/21/8 109/51/8
f 23/6/1 10/52/1 9/53/1
f 102/22/8 105/22/8 108/22/8
f 58/51/8 109/51/8 106/54/8
f 41/22/8 106/22/8 105/22/8
f 40/55/8 108/55/8 107/20/8
f 119/22/24 120/22/24 125/22/24
f 88/22/25 124/22/25 117/22/25
f 111/60/27 117/24/27 116/23/27
f 57/22/28 130/22/28 141/61/28
f 34/22/29 132/22/29 57/22/29
f 131/22/30 182/22/30 96/62/30
f 136/22/31 135/22/31 133/22/31
f 133/22/32 135/22/32 183/22/32
f 183/22/33 94/22/33 134/22/33
f 155/22/34 142/22/34 143/22/34
f 149/22/34 146/22/34 147/22/34
f 153/22/34 154/22/34 149/22/34
f 152/63/35 150/51/35 154/51/35
f 153/22/34 149/22/34 147/22/34
f 151/64/36 153/20/36 147/65/36
f 105/22/34 106/22/34 154/22/34
f 77/18/37 192/32/37 161/18/37
f 78/22/18 75/22/18 157/22/18
f 157/22/18 159/22/18 158/22/18
f 178/22/38 172/22/38 163/22/38
f 178/22/39 177/22/39 172/22/39
f 171/36/40 50/39/40 43/66/40
f 179/67/41 173/68/41 180/69/41
f 175/30/42 176/44/42 177/70/42
f 179/67/43 180/69/43 175/30/43
f 180/69/44 181/69/44 176/44/44
f 139/71/45 184/20/45 183/20/45
f 70/45/8 80/45/8 192/32/8
f 35/22/8 76/22/8 191/22/8
f 186/22/34 69/22/34 73/22/34
f 65/31/12 70/45/12 190/32/12
f 61/72/47 73/73/47 2/72/47
f 21/16/48 2/72/48 187/42/48
f 203/22/54 209/47/54 206/61/54 169/22/54
f 200/22/56 203/22/56 28/82/56 201/86/56
f 19/12/57 27/19/57 216/13/57
f 98/4/58 9/53/58 30/49/58
f 198/11/1 216/13/1 204/14/1
f 28/82/59 203/22/59 169/22/59
f 31/87/60 32/75/60 30/49/60 9/53/60
f 197/8/61 100/2/61 33/88/61
f 188/14/1 17/17/1 25/74/1
f 46/27/63 22/26/63 53/35/63 36/35/63
f 48/90/65 60/80/65 58/51/65 41/54/65
f 104/50/66 117/24/66 90/91/66
f 134/22/67 94/22/67 96/22/67
f 56/20/8 110/21/8 103/21/8
f 67/22/8 78/22/8 42/22/8
f 60/80/68 48/90/68 170/29/68
f 61/72/69 49/92/69 37/93/69
f 50/39/70 66/37/70 187/42/70 69/40/70
f 3/33/71 22/26/71 38/25/71
f 90/91/72 53/35/72 1/35/72 98/4/72
f 49/92/73 61/72/73 2/72/73 21/16/73
f 44/17/74 17/17/74 12/94/74 54/19/74
f 47/74/75 25/74/75 17/17/75 44/17/75
f 58/51/76 60/80/76 5/79/76 103/21/76
f 19/12/77 198/11/77 215/84/77 213/83/77
f 54/19/79 12/94/79 65/31/79 55/18/79
f 98/4/80 104/50/80 90/91/80
f 52/95/81 30/49/81 6/36/81 171/36/81
f 30/49/82 52/95/82 104/50/82
f 39/15/83 4/15/83 25/74/83 47/74/83
f 45/34/84 51/86/84 11/86/84 3/33/84
f 39/15/85 49/92/85 21/16/85 4/15/85
f 62/22/89 114/22/89 126/22/89 92/22/89
f 59/30/90 70/45/90 65/31/90 165/28/90
f 210/9/91 195/6/91 208/5/91 205/98/91
f 73/73/92 74/43/92 2/72/92
f 55/18/8 76/18/8 35/18/8
f 65/31/93 12/94/93 16/99/93 165/28/93
f 215/84/94 212/3/94 100/2/94 197/8/94
f 199/75/95 100/2/95 196/1/95
f 71/39/96 72/40/96 68/22/96 43/22/96
f 50/39/97 69/40/97 72/40/97
f 81/45/98 83/45/98 160/30/98 158/44/98
f 185/22/8 75/22/8 67/22/8
f 190/32/8 77/18/8 55/18/8
f 42/44/8 79/30/8 59/30/8
f 59/30/8 80/45/8 70/45/8
f 82/18/99 193/18/99 159/18/99 161/18/99
f 161/18/37 160/30/37 83/45/37
f 63/22/100 92/22/100 126/22/100 120/22/100
f 84/100/103 87/5/103 22/26/103 3/33/103
f 216/13/1 27/19/1 18/17/1
f 131/22/104 96/62/104 97/48/104
f 86/81/105 84/100/105 3/33/105 11/86/105
f 87/5/107 98/4/107 1/35/107 22/26/107
f 96/62/108 94/46/108 95/20/108 97/48/108
f 95/20/109 184/20/109 140/47/109 97/48/109
f 103/21/8 109/51/8 58/51/8
f 23/6/112 9/53/112 98/4/112
f 155/51/114 144/51/114 142/54/114
f 102/22/8 108/22/8 40/22/8
f 58/51/8 106/54/8 41/54/8
f 41/22/8 105/22/8 102/22/8
f 40/55/8 107/20/8 56/20/8
f 90/91/115 111/60/115 127/57/115
f 127/57/116 111/60/116 128/59/116
f 124/22/117 88/22/117 36/22/117 118/22/117
f 116/22/118 124/22/118 118/22/118 119/22/118
f 126/22/119 114/22/119 115/22/119 125/22/119
f 119/22/120 125/22/120 116/22/120
f 120/22/121 126/22/121 125/22/121
f 124/22/122 116/22/122 117/22/122
f 116/22/123 125/22/123 115/22/123
f 127/57/124 123/35/124 53/35/124 90/91/124
f 128/59/125 122/58/125 123/35/125 127/57/125
f 118/35/126 36/35/126 53/35/126 123/35/126
f 122/58/127 129/57/127 121/35/127
f 119/35/128 118/35/128 123/35/128 122/58/128
f 121/35/129 120/35/129 119/35/129 122/58/129
f 112/56/130 111/60/130 116/23/130 115/60/130
f 90/91/131 117/24/131 111/60/131
f 131/22/133 139/71/133 141/61/133 130/22/133
f 137/20/135 136/65/135 40/55/135 56/20/135
f 138/20/136 135/55/136 136/65/136 137/20/136
f 139/71/137 183/20/137 135/55/137 138/20/137
f 133/22/138 132/22/138 34/22/138 89/22/138
f 184/20/139 94/46/139 183/20/139
f 182/22/140 132/22/140 133/22/140 134/22/140
f 134/22/142 96/62/142 182/22/142
f 182/22/143 131/22/143 130/22/143 132/22/143
f 137/20/144 141/61/144 138/20/144
f 141/61/145 139/71/145 138/20/145
f 132/22/146 130/22/146 57/22/146
f 136/22/147 133/22/147 89/22/147 40/22/147
f 142/54/148 144/51/148 145/101/148 143/102/148
f 133/22/149 183/22/149 134/22/149
f 143/102/150 145/101/150 156/64/150 147/65/150
f 146/51/151 149/51/151 150/51/151 148/51/151
f 151/64/152 147/65/152 156/64/152
f 150/51/95 156/64/95 148/51/95
f 154/51/153 106/54/153 109/51/153 152/63/153
f 150/51/154 149/51/154 154/51/154
f 151/64/155 156/64/155 150/51/155
f 145/101/95 144/51/95 148/51/95 156/64/95
f 143/22/34 147/22/34 146/22/34 155/22/34
f 155/51/157 146/51/157 148/51/157 144/51/157
f 161/18/158 159/18/158 76/18/158 77/18/158
f 157/22/18 75/22/18 191/22/18 159/22/18
f 79/30/37 162/30/37 80/45/37
f 162/30/37 160/30/37 161/18/37
f 162/30/159 79/30/159 78/44/159 157/70/159
f 160/30/160 162/30/160 157/70/160 158/44/160
f 164/30/161 172/103/161 177/70/161 176/44/161
f 181/69/162 172/103/162 164/30/162
f 181/69/163 164/30/163 176/44/163
f 163/104/164 172/103/164 181/69/164 173/68/164
f 66/37/166 50/39/166 171/36/166
f 60/80/167 170/29/167 165/28/167
f 198/11/168 101/38/168 212/3/168 215/84/168
f 177/22/171 174/22/171 48/22/171 42/22/171
f 197/8/172 33/88/172 210/9/172
f 177/70/173 42/44/173 59/30/173 175/30/173
f 174/22/174 177/22/174 178/22/174
f 174/22/175 178/22/175 163/22/175
f 175/30/176 59/30/176 170/29/176 179/67/176
f 179/67/177 170/29/177 48/90/177 174/104/177
f 180/69/178 176/44/178 175/30/178
f 163/104/179 173/68/179 179/67/179 174/104/179
f 162/30/37 161/18/37 192/32/37 80/45/37
f 173/68/180 181/69/180 180/69/180
f 139/71/181 140/47/181 184/20/181
f 139/71/182 131/22/182 140/47/182
f 76/22/18 159/22/18 191/22/18
f 193/18/183 82/18/183 83/45/183 81/45/183
f 161/18/184 83/45/184 82/18/184
f 70/45/8 192/32/8 190/32/8
f 35/22/8 191/22/8 185/22/8
f 68/22/185 72/40/185 186/105/185 61/72/185 37/93/185
f 69/40/188 187/42/188 73/41/188
f 186/105/34 73/73/34 61/72/34
f 187/42/189 2/72/189 74/43/189
f 411/1/19 427/3/19 315/2/19
f 313/4/190 239/6/190 302/5/190
f 224/7/191 425/9/191 412/8/191
f 413/11/193 431/13/193 235/12/193
f 403/14/19 233/17/19 404/13/19
f 270/18/195 269/19/195 251/18/195
f 271/20/8 325/21/8 322/20/8
f 282/22/8 293/22/8 290/22/8
f 254/25/197 262/27/197 238/26/197
f 380/28/198 274/30/198 385/29/198
f 280/31/199 270/18/199 405/32/199
f 219/33/200 261/34/200 254/25/200
f 217/35/201 238/26/201 268/35/201
f 222/36/202 386/36/202 281/37/202
f 270/18/8 291/18/8 292/18/8
f 223/38/19 403/14/19 245/11/19
f 266/39/8 286/39/8 287/40/8
f 288/41/204 289/43/204 402/42/204
f 374/22/95 373/22/95 296/22/95
f 400/22/8 290/22/8 406/22/8
f 405/32/8 292/18/8 407/32/8
f 258/44/8 294/30/8 293/44/8
f 274/30/8 295/45/8 294/30/8
f 374/22/1 296/22/1 408/22/1
f 399/20/205 309/46/205 310/20/205
f 355/47/206 312/48/206 346/22/206
f 313/4/207 319/50/207 246/49/207
f 318/21/8 324/51/8 325/21/8
f 239/6/19 225/53/19 226/52/19
f 317/22/8 323/22/8 320/22/8
f 273/51/8 321/54/8 324/51/8
f 257/22/8 320/22/8 321/22/8
f 256/55/8 322/20/8 323/55/8
f 334/22/209 340/22/209 335/22/209
f 303/22/210 332/22/210 339/22/210
f 326/60/212 331/23/212 332/24/212
f 272/22/213 356/61/213 345/22/213
f 250/22/214 272/22/214 347/22/214
f 346/22/215 311/62/215 397/22/215
f 351/22/216 348/22/216 350/22/216
f 348/22/217 398/22/217 350/22/217
f 398/22/218 349/22/218 309/22/218
f 370/22/37 358/22/37 357/22/37
f 364/22/37 362/22/37 361/22/37
f 368/22/37 364/22/37 369/22/37
f 367/63/219 369/51/219 365/51/219
f 368/22/37 362/22/37 364/22/37
f 366/64/220 362/65/220 368/20/220
f 320/22/37 369/22/37 321/22/37
f 292/18/34 376/18/34 407/32/34
f 293/22/95 372/22/95 290/22/95
f 372/22/95 373/22/95 374/22/95
f 393/22/221 378/22/221 387/22/221
f 393/22/222 387/22/222 392/22/222
f 386/36/223 259/66/223 266/39/223
f 394/67/224 395/69/224 388/68/224
f 390/30/225 392/70/225 391/44/225
f 394/67/226 390/30/226 395/69/226
f 395/69/227 391/44/227 396/69/227
f 354/71/228 398/20/228 399/20/228
f 285/45/8 407/32/8 295/45/8
f 251/22/8 406/22/8 291/22/8
f 401/22/37 288/22/37 284/22/37
f 280/31/199 405/32/199 285/45/199
f 276/72/230 218/72/230 288/73/230
f 237/16/231 402/42/231 218/72/231
f 418/22/237 384/22/237 421/61/237 424/47/237
f 415/22/239 416/86/239 244/82/239 418/22/239
f 235/12/240 431/13/240 243/19/240
f 313/4/241 246/49/241 225/53/241
f 413/11/19 419/14/19 431/13/19
f 244/82/242 384/22/242 418/22/242
f 247/87/243 225/53/243 246/49/243 248/75/243
f 412/8/244 249/88/244 315/2/244
f 403/14/19 241/74/19 233/17/19
f 262/27/246 252/35/246 268/35/246 238/26/246
f 264/90/248 257/54/248 273/51/248 275/80/248
f 319/50/249 305/91/249 332/24/249
f 349/22/250 311/22/250 309/22/250
f 271/20/8 318/21/8 325/21/8
f 282/22/8 258/22/8 293/22/8
f 275/80/251 385/29/251 264/90/251
f 276/72/252 253/93/252 265/92/252
f 266/39/253 284/40/253 402/42/253 281/37/253
f 219/33/254 254/25/254 238/26/254
f 305/91/255 313/4/255 217/35/255 268/35/255
f 265/92/256 237/16/256 218/72/256 276/72/256
f 260/17/257 269/19/257 228/94/257 233/17/257
f 263/74/258 260/17/258 233/17/258 241/74/258
f 273/51/259 318/21/259 221/79/259 275/80/259
f 235/12/260 428/83/260 430/84/260 413/11/260
f 269/19/262 270/18/262 280/31/262 228/94/262
f 313/4/263 305/91/263 319/50/263
f 52/95/264 386/36/264 222/36/264 246/49/264
f 246/49/265 319/50/265 52/95/265
f 255/15/266 263/74/266 241/74/266 220/15/266
f 261/34/267 219/33/267 227/86/267 267/86/267
f 255/15/268 220/15/268 237/16/268 265/92/268
f 277/22/272 307/22/272 341/22/272 329/22/272
f 274/30/273 380/28/273 280/31/273 285/45/273
f 425/9/274 420/98/274 423/5/274 410/6/274
f 288/73/275 218/72/275 289/43/275
f 270/18/8 251/18/8 291/18/8
f 280/31/276 380/28/276 232/99/276 228/94/276
f 430/84/277 412/8/277 315/2/277 427/3/277
f 414/75/18 411/1/18 315/2/18
f 286/39/96 259/22/96 283/22/96 287/40/96
f 266/39/278 287/40/278 284/40/278
f 296/45/279 373/44/279 375/30/279 298/45/279
f 400/22/8 282/22/8 290/22/8
f 405/32/8 270/18/8 292/18/8
f 258/44/8 274/30/8 294/30/8
f 274/30/8 285/45/8 295/45/8
f 297/18/280 376/18/280 374/18/280 408/18/280
f 376/18/34 298/45/34 375/30/34
f 278/22/281 335/22/281 341/22/281 307/22/281
f 299/100/284 219/33/284 238/26/284 302/5/284
f 431/13/19 234/17/19 243/19/19
f 346/22/285 312/48/285 311/62/285
f 301/81/286 227/86/286 219/33/286 299/100/286
f 302/5/288 238/26/288 217/35/288 313/4/288
f 311/62/289 312/48/289 310/20/289 309/46/289
f 310/20/290 312/48/290 355/47/290 399/20/290
f 318/21/8 273/51/8 324/51/8
f 239/6/293 313/4/293 225/53/293
f 370/51/295 357/54/295 359/51/295
f 317/22/8 256/22/8 323/22/8
f 273/51/8 257/54/8 321/54/8
f 257/22/8 317/22/8 320/22/8
f 256/55/8 271/20/8 322/20/8
f 305/91/296 342/57/296 326/60/296
f 342/57/297 343/59/297 326/60/297
f 339/22/298 333/22/298 252/22/298 303/22/298
f 331/22/299 334/22/299 333/22/299 339/22/299
f 341/22/300 340/22/300 330/22/300 329/22/300
f 334/22/301 331/22/301 340/22/301
f 335/22/302 340/22/302 341/22/302
f 339/22/303 332/22/303 331/22/303
f 331/22/304 330/22/304 340/22/304
f 342/57/305 305/91/305 268/35/305 338/35/305
f 343/59/306 342/57/306 338/35/306 337/58/306
f 333/35/307 338/35/307 268/35/307 252/35/307
f 337/58/308 336/35/308 344/57/308
f 334/35/309 337/58/309 338/35/309 333/35/309
f 336/35/310 337/58/310 334/35/310 335/35/310
f 327/56/311 330/60/311 331/23/311 326/60/311
f 305/91/312 326/60/312 332/24/312
f 346/22/314 345/22/314 356/61/314 354/71/314
f 352/20/316 271/20/316 256/55/316 351/65/316
f 353/20/317 352/20/317 351/65/317 350/55/317
f 354/71/318 353/20/318 350/55/318 398/20/318
f 348/22/319 304/22/319 250/22/319 347/22/319
f 399/20/320 398/20/320 309/46/320
f 397/22/321 349/22/321 348/22/321 347/22/321
f 349/22/323 397/22/323 311/62/323
f 397/22/324 347/22/324 345/22/324 346/22/324
f 352/20/325 353/20/325 356/61/325
f 356/61/326 353/20/326 354/71/326
f 347/22/327 272/22/327 345/22/327
f 351/22/328 256/22/328 304/22/328 348/22/328
f 357/54/329 358/102/329 360/101/329 359/51/329
f 348/22/330 349/22/330 398/22/330
f 358/102/331 362/65/331 371/64/331 360/101/331
f 361/51/332 363/51/332 365/51/332 364/51/332
f 366/64/333 371/64/333 362/65/333
f 365/51/18 363/51/18 371/64/18
f 369/51/334 367/63/334 324/51/334 321/54/334
f 365/51/335 369/51/335 364/51/335
f 366/64/336 365/51/336 371/64/336
f 360/101/18 371/64/18 363/51/18 359/51/18
f 358/22/37 370/22/37 361/22/37 362/22/37
f 370/51/338 359/51/338 363/51/338 361/51/338
f 376/18/339 292/18/339 291/18/339 374/18/339
f 372/22/95 374/22/95 406/22/95 290/22/95
f 294/30/34 295/45/34 377/30/34
f 377/30/34 376/18/34 375/30/34
f 377/30/340 372/70/340 293/44/340 294/30/340
f 375/30/341 373/44/341 372/70/341 377/30/341
f 379/30/342 391/44/342 392/70/342 387/103/342
f 396/69/343 379/30/343 387/103/343
f 396/69/344 391/44/344 379/30/344
f 378/104/345 388/68/345 396/69/345 387/103/345
f 281/37/347 386/36/347 266/39/347
f 275/80/348 380/28/348 385/29/348
f 413/11/349 430/84/349 427/3/349 316/38/349
f 392/22/352 258/22/352 264/22/352 389/22/352
f 412/8/353 425/9/353 249/88/353
f 392/70/354 390/30/354 274/30/354 258/44/354
f 389/22/355 393/22/355 392/22/355
f 389/22/356 378/22/356 393/22/356
f 390/30/357 394/67/357 385/29/357 274/30/357
f 394/67/358 389/104/358 264/90/358 385/29/358
f 395/69/359 390/30/359 391/44/359
f 378/104/360 389/104/360 394/67/360 388/68/360
f 377/30/34 295/45/34 407/32/34 376/18/34
f 388/68/361 395/69/361 396/69/361
f 354/71/362 399/20/362 355/47/362
f 354/71/363 355/47/363 346/22/363
f 291/22/95 406/22/95 374/22/95
f 408/18/364 296/45/364 298/45/364 297/18/364
f 376/18/365 297/18/365 298/45/365
f 285/45/8 405/32/8 407/32/8
f 251/22/8 400/22/8 406/22/8
f 283/22/366 253/93/366 276/72/366 401/105/366 287/40/366
f 284/40/369 288/41/369 402/42/369
f 401/105/37 276/72/37 288/73/37
f 402/42/370 289/43/370 218/72/370
usemtl Material.002
f 8/7/4 20/10/4 197/8/4
f 188/14/6 4/15/6 21/16/6
f 113/23/9 114/24/9 62/24/9
f 66/37/16 7/38/16 188/14/16
f 112/56/23 113/23/23 129/57/23
f 122/58/26 128/59/26 129/57/26
f 66/37/46 21/16/46 187/42/46
f 188/14/1 25/74/1 4/15/1
f 24/1/49 6/36/49 30/49/49 32/75/49
f 196/1/1 212/3/1 214/76/1
f 14/77/50 99/78/50 5/79/50 60/80/50
f 207/81/51 28/82/51 169/22/51 206/61/51
f 197/8/52 213/83/52 215/84/52
f 26/85/53 20/10/53 8/7/53
f 7/38/55 66/37/55 168/76/55 166/3/55
f 20/10/62 213/83/62 197/8/62
f 60/80/64 15/89/64 14/77/64
f 56/20/78 5/79/78 85/61/78 91/47/78
f 63/35/86 64/35/86 93/96/86 92/97/86
f 64/35/87 63/35/87 120/35/87 121/35/87
f 64/35/88 121/35/88 129/57/88 93/96/88
f 62/24/101 92/97/101 93/96/101 113/23/101
f 113/23/102 93/96/102 129/57/102
f 8/7/106 205/98/106 207/81/106 26/85/106
f 129/57/110 128/59/110 111/60/110 112/56/110
f 5/79/111 56/20/111 103/21/111
f 5/79/113 99/78/113 13/85/113
f 113/23/132 112/56/132 115/60/132 114/24/132
f 57/22/134 141/61/134 91/47/134
f 137/20/141 56/20/141 91/47/141 141/61/141
f 154/22/34 153/22/34 108/22/34 105/22/34
f 152/63/95 109/51/95 110/21/95 150/51/95
f 150/51/95 110/21/95 107/20/95 151/64/95
f 153/20/156 151/64/156 107/20/156 108/55/156
f 26/85/165 207/81/165 206/61/165 167/55/165
f 165/28/169 16/99/169 15/89/169 60/80/169
f 168/76/170 66/37/170 6/36/170 24/1/170
f 188/14/186 21/16/186 66/37/186
f 205/98/187 8/7/187 210/9/187
f 224/7/192 412/8/192 236/10/192
f 403/14/194 237/16/194 220/15/194
f 328/23/196 277/24/196 329/24/196
f 281/37/203 403/14/203 223/38/203
f 327/56/208 344/57/208 328/23/208
f 337/58/211 344/57/211 343/59/211
f 281/37/229 402/42/229 237/16/229
f 403/14/19 220/15/19 241/74/19
f 240/1/232 248/75/232 246/49/232 222/36/232
f 411/1/19 429/76/19 427/3/19
f 230/77/233 275/80/233 221/79/233 314/78/233
f 422/81/234 421/61/234 384/22/234 244/82/234
f 412/8/235 430/84/235 428/83/235
f 242/85/236 224/7/236 236/10/236
f 223/38/238 381/3/238 383/76/238 281/37/238
f 236/10/245 412/8/245 428/83/245
f 275/80/247 230/77/247 231/89/247
f 271/20/261 306/47/261 300/61/261 221/79/261
f 278/35/269 307/97/269 308/96/269 279/35/269
f 279/35/270 336/35/270 335/35/270 278/35/270
f 279/35/271 308/96/271 344/57/271 336/35/271
f 277/24/282 328/23/282 308/96/282 307/97/282
f 328/23/283 344/57/283 308/96/283
f 224/7/287 242/85/287 422/81/287 420/98/287
f 344/57/291 327/56/291 326/60/291 343/59/291
f 221/79/292 318/21/292 271/20/292
f 221/79/294 229/85/294 314/78/294
f 328/23/313 329/24/313 330/60/313 327/56/313
f 272/22/315 306/47/315 356/61/315
f 352/20/322 356/61/322 306/47/322 271/20/322
f 369/22/37 320/22/37 323/22/37 368/22/37
f 367/63/18 365/51/18 325/21/18 324/51/18
f 365/51/18 366/64/18 322/20/18 325/21/18
f 368/20/337 323/55/337 322/20/337 366/64/337
f 242/85/346 382/55/346 421/61/346 422/81/346
f 380/28/350 275/80/350 231/89/350 232/99/350
f 383/76/351 240/1/351 222/36/351 281/37/351
f 403/14/367 281/37/367 237/16/367
f 420/98/368 425/9/368 224/7/368
l 208 194
l 69 68
l 194 202
l 423 409
l 284 283
l 409 417
